<?xml version="1.0" encoding="utf-8"?>
<svg viewBox="192.768 140.91 105.637 104.345" xmlns="http://www.w3.org/2000/svg">
  <path style="fill: rgb(79, 79, 115); stroke: none;" d="M 214.347 144.717 L 216.148 146.5 L 214.347 144.717 M 210.743 146.5 L 212.545 148.283 L 210.743 146.5 Z"/>
  <path style="fill: rgb(79, 79, 115); stroke: none;" d="M 205.338 150.066 L 207.14 151.849 L 205.338 150.066 M 244.975 150.066 L 246.777 151.849 L 244.975 150.066 Z"/>
  <path style="fill: rgb(79, 79, 115); stroke: none;" d="M 239.57 151.849 L 241.372 153.63 L 239.57 151.849 Z"/>
  <path style="fill: rgb(64, 106, 128); stroke: none;" d="M 199.933 155.413 L 201.735 157.196 L 199.933 155.413 Z"/>
  <path style="fill: rgb(1, 1, 129); stroke: none;" d="M 207.14 155.413 L 208.941 157.196 L 207.14 155.413 M 212.545 155.413 L 214.347 157.196 L 212.545 155.413 M 225.156 155.413 L 226.958 157.196 L 225.156 155.413 Z"/>
  <path style="fill: rgb(64, 106, 128); stroke: none;" d="M 246.777 155.413 L 248.579 157.196 L 246.777 155.413 Z"/>
  <path style="fill: rgb(79, 79, 115); stroke: none;" d="M 203.536 158.979 L 205.338 160.762 L 203.536 158.979 Z"/>
  <path style="fill: rgb(1, 1, 129); stroke: none;" d="M 243.174 158.979 L 244.975 160.762 L 243.174 158.979 Z"/>
  <path style="fill: rgb(64, 106, 128); stroke: none;" d="M 257.586 160.762 L 259.388 162.544 L 257.586 160.762 M 199.933 164.327 L 201.735 166.11 L 199.933 164.327 Z"/>
  <path style="fill: rgb(1, 1, 129); stroke: none;" d="M 255.785 164.327 L 257.586 166.11 L 255.785 164.327 Z"/>
  <path style="fill: rgb(64, 106, 128); stroke: none;" d="M 198.131 167.893 L 199.933 169.676 L 198.131 167.893 Z"/>
  <path style="fill: rgb(79, 79, 115); stroke: none;" d="M 201.735 167.893 L 203.536 169.676 L 201.735 167.893 M 207.14 167.893 L 208.941 169.676 L 207.14 167.893 Z"/>
  <path style="fill: rgb(64, 106, 128); stroke: none;" d="M 257.586 167.893 L 259.388 169.676 L 257.586 167.893 M 217.95 169.676 L 219.752 171.458 L 217.95 169.676 Z"/>
  <path style="fill: rgb(79, 79, 115); stroke: none;" d="M 241.372 169.676 L 243.174 171.458 L 241.372 169.676 Z"/>
  <path style="fill: rgb(1, 1, 129); stroke: none;" d="M 196.678 121.324 L 199.935 124.436 L 196.678 121.324 M 304.135 121.324 L 307.392 124.436 L 304.135 121.324 Z"/>
  <path style="fill: rgb(79, 79, 115); stroke: none;" d="M 268.397 173.241 L 270.199 175.024 L 268.397 173.241 M 196.329 175.024 L 198.131 176.806 L 196.329 175.024 Z"/>
  <path style="fill: rgb(64, 106, 128); stroke: none;" d="M 304.135 143.105 L 307.392 146.217 L 304.135 143.105 Z"/>
  <path style="fill: rgb(79, 79, 115); stroke: none;" d="M 268.397 185.72 L 270.199 187.503 L 268.397 185.72 M 205.338 187.503 L 207.14 189.286 L 205.338 187.503 M 192.726 191.068 L 194.528 192.851 L 192.726 191.068 Z"/>
  <path style="stroke: none; fill: rgba(1, 1, 1, 0);" d="M 192.726 192.851 L 192.726 244.551 L 279.207 244.551 L 255.785 212.461 C 224.821 220.82 213.704 217.525 192.726 192.851 Z"/>
  <path style="fill: rgb(79, 79, 115); stroke: none;" d="M 317.161 155.552 L 320.418 158.664 L 317.161 155.552 M 216.216 161.777 L 219.472 164.889 L 216.216 161.777 Z"/>
  <path style="fill: rgb(64, 106, 128); stroke: none;" d="M 284.599 161.777 L 287.854 164.889 L 284.599 161.777 M 304.135 161.777 L 307.392 164.889 L 304.135 161.777 Z"/>
  <path style="fill: rgb(79, 79, 115); stroke: none;" d="M 219.472 164.889 L 222.729 168.001 L 219.472 164.889 M 209.704 168.001 L 212.959 171.11 L 209.704 168.001 M 291.111 168.001 L 294.368 171.11 L 291.111 168.001 M 229.241 171.11 L 232.498 174.222 L 229.241 171.11 M 271.574 171.11 L 274.83 174.222 L 271.574 171.11 M 222.729 177.334 L 225.984 180.446 L 222.729 177.334 M 278.085 177.334 L 281.342 180.446 L 278.085 177.334 M 229.241 180.446 L 232.498 183.558 L 229.241 180.446 Z"/>
  <path style="fill: rgb(1, 1, 1); stroke: none;" d="M 300.878 180.446 L 307.392 186.669 L 300.878 180.446 Z"/>
  <path style="fill: rgb(64, 106, 128); stroke: none;" d="M 274.83 186.669 L 278.085 189.781 L 274.83 186.669 Z"/>
  <path style="fill: rgb(79, 79, 115); stroke: none;" d="M 287.854 189.781 L 291.111 192.893 L 287.854 189.781 Z"/>
  <path style="fill: rgb(64, 106, 128); stroke: none;" d="M 219.472 192.893 L 222.729 196.005 L 219.472 192.893 Z"/>
  <path style="fill: rgb(79, 79, 115); stroke: none;" d="M 307.392 196.005 L 310.649 199.117 L 307.392 196.005 Z"/>
  <path style="fill: rgb(64, 106, 128); stroke: none;" d="M 242.265 199.117 L 245.522 202.228 L 242.265 199.117 Z"/>
  <path style="fill: rgb(79, 79, 115); stroke: none;" d="M 304.135 205.34 L 307.392 208.452 L 304.135 205.34 Z"/>
  <path style="fill: rgb(64, 106, 128); stroke: none;" d="M 261.19 223.158 L 262.992 224.94 L 261.19 223.158 M 282.811 224.94 L 284.612 226.723 L 282.811 224.94 Z"/>
  <path style="fill: rgb(79, 79, 115); stroke: none;" d="M 330.187 233.346 L 333.443 236.456 L 330.187 233.346 Z"/>
  <path style="fill: rgb(1, 1, 1); stroke: none;" d="M 295.422 242.768 L 297.224 244.551 L 295.422 242.768 Z"/>
  <path style="stroke: none; fill: none;" d="M 193.493 140.939 L 193.493 195.049 C 213.215 188.959 224.267 187.072 244.1 193.303 L 224.219 165.376 L 231.448 172.358 C 240.375 168.011 237.759 159.607 244.674 154.487 C 251.635 149.335 261.881 157.596 257.021 164.952 C 252.762 171.396 242.262 170.818 236.87 177.594 L 245.907 186.321 L 247.714 186.321 C 253.151 179.182 263.589 173.434 263.589 163.63 C 263.589 142.156 233.494 145.242 229.641 163.63 L 224.219 161.885 C 232.195 142.259 265.362 134.338 268.913 161.885 C 270.693 175.707 254.714 182.172 249.522 193.303 C 269.569 188.824 278.375 190.46 298.321 193.303 L 298.321 140.939 L 193.493 140.939 Z"/>
  <path style="stroke: rgb(12, 29, 103); fill: rgba(26, 84, 132, 0.42);" d="M 226.026 163.63 L 227.833 163.63 C 235.574 151.902 262.829 138.501 263.473 163.63 C 263.72 173.351 252.198 178.692 247.714 186.321 L 236.87 177.594 C 242.372 172.895 254.595 170.808 257.904 164.89 C 262.217 157.182 252.383 148.827 244.884 153.498 C 238.575 157.427 238.218 167.378 231.448 172.358 L 224.219 165.376 L 245.907 193.303 C 238.224 191.587 230.306 187.559 222.411 187.211 C 185.141 185.578 193.493 221.089 193.493 245.667 L 221.645 240.493 L 244.1 245.498 L 272.251 240.493 L 298.321 245.667 L 298.321 215.994 C 289.315 218.881 291.093 227.298 291.091 235.194 L 274.825 231.703 L 274.825 196.794 L 291.091 200.285 L 291.091 214.249 L 298.321 214.249 L 298.321 193.303 C 278.653 189.372 269.092 187.154 249.522 193.303 C 255.508 183.513 268.223 177.589 269.181 165.376 C 271.382 137.27 222.764 136.111 226.026 163.63 Z"/>
  <path style="fill: rgb(62, 106, 125); stroke: none;" d="M 235.063 144.43 L 236.87 146.176 L 235.063 144.43 Z"/>
  <path style="fill: rgb(76, 76, 115); stroke: none;" d="M 256.751 144.43 L 258.559 146.176 L 256.751 144.43 Z"/>
  <path style="fill: rgb(62, 106, 125); stroke: none;" d="M 253.137 151.412 L 254.944 153.157 L 253.137 151.412 Z"/>
  <path style="fill: rgb(76, 76, 115); stroke: none;" d="M 226.026 153.157 L 227.833 154.903 L 226.026 153.157 Z"/>
  <path style="fill: rgb(62, 106, 125); stroke: none;" d="M 240.485 154.903 L 242.292 156.648 L 240.485 154.903 Z"/>
  <path style="fill: rgb(62, 106, 125); stroke: none;" d="M 262.173 156.648 L 263.981 158.394 L 262.173 156.648 M 244.1 160.139 L 245.907 161.885 L 244.1 160.139 M 227.833 161.885 L 229.641 163.63 L 227.833 161.885 Z"/>
  <path style="fill: rgb(76, 76, 115); stroke: none;" d="M 253.137 161.885 L 254.944 163.63 L 253.137 161.885 Z"/>
  <path style="fill: rgb(62, 106, 125); stroke: none;" d="M 258.559 161.885 L 260.366 163.63 L 258.559 161.885 M 251.329 163.63 L 253.137 165.376 L 251.329 163.63 Z"/>
  <path style="fill: rgb(1, 1, 129); stroke: none;" d="M 251.329 168.867 L 253.137 170.612 L 251.329 168.867 Z"/>
  <path style="fill: rgb(76, 76, 115); stroke: none;" d="M 262.173 168.867 L 263.981 170.612 L 262.173 168.867 Z"/>
  <path style="fill: rgb(62, 106, 125); stroke: none;" d="M 226.026 172.358 L 227.833 174.103 L 226.026 172.358 M 258.559 174.103 L 260.366 175.848 L 258.559 174.103 M 263.981 175.848 L 265.788 177.594 L 263.981 175.848 M 238.678 177.594 L 240.485 179.339 L 238.678 177.594 Z"/>
  <path style="fill: rgb(1, 1, 129); stroke: none;" d="M 253.137 177.594 L 254.944 179.339 L 253.137 177.594 Z"/>
  <path style="fill: rgb(62, 106, 125); stroke: none;" d="M 260.366 179.339 L 262.173 181.085 L 260.366 179.339 M 247.714 182.83 L 249.522 184.576 L 247.714 182.83 Z"/>
  <path style="fill: rgb(1, 1, 129); stroke: none;" d="M 224.219 186.321 L 226.026 188.067 L 224.219 186.321 M 240.485 186.321 L 242.292 188.067 L 240.485 186.321 M 274.825 186.321 L 276.632 188.067 L 274.825 186.321 Z"/>
  <path style="fill: rgb(76, 76, 115); stroke: none;" d="M 229.641 188.067 L 231.448 189.812 L 229.641 188.067 Z"/>
  <path style="fill: rgb(62, 106, 125); stroke: none;" d="M 280.247 188.067 L 282.054 189.812 L 280.247 188.067 Z"/>
  <path style="fill: rgb(76, 76, 115); stroke: none;" d="M 235.063 189.812 L 236.87 191.558 L 235.063 189.812 M 249.522 189.812 L 251.329 191.558 L 249.522 189.812 Z"/>
  <path style="fill: rgb(62, 106, 125); stroke: none;" d="M 285.669 189.812 L 287.477 191.558 L 285.669 189.812 Z"/>
  <path style="fill: rgb(1, 1, 129); stroke: none;" d="M 200.723 191.558 L 202.53 193.303 L 200.723 191.558 Z"/>
  <path style="fill: rgb(62, 106, 125); stroke: none;" d="M 240.485 191.558 L 242.292 193.303 L 240.485 191.558 M 244.1 191.558 L 245.907 193.303 L 244.1 191.558 Z"/>
  <path style="fill: rgb(76, 76, 115); stroke: none;" d="M 195.301 193.303 L 197.108 195.049 L 195.301 193.303 Z"/>
  <path style="fill: rgb(1, 1, 129); stroke: none;" d="M 213.374 196.794 L 215.182 198.539 L 213.374 196.794 Z"/>
  <path style="stroke: none; fill: rgb(14, 12, 74);" d="M 202.53 200.285 L 202.53 235.194 L 218.796 231.703 L 218.796 196.794 L 202.53 200.285 M 224.219 196.794 L 224.219 231.703 L 244.1 236.94 L 244.1 202.03 L 224.219 196.794 Z"/>
  <path style="fill: rgb(62, 106, 125); stroke: none;" d="M 227.833 196.794 L 229.641 198.539 L 227.833 196.794 Z"/>
  <path style="stroke: none; fill: rgba(5, 22, 118, 0.71);" d="M 249.522 202.03 L 249.522 236.94 L 269.403 231.703 L 269.403 196.794 L 249.522 202.03 M 274.825 196.794 L 274.825 231.703 L 291.091 235.194 L 291.091 215.994 L 298.321 215.994 L 298.321 214.249 L 291.091 214.249 L 291.091 200.285 L 274.825 196.794 Z"/>
  <path style="fill: rgb(76, 76, 115); stroke: none;" d="M 233.255 198.539 L 235.063 200.285 L 233.255 198.539 M 238.678 200.285 L 240.485 202.03 L 238.678 200.285 Z"/>
  <path style="fill: rgb(62, 106, 125); stroke: none;" d="M 291.091 215.994 L 292.899 217.74 L 291.091 215.994 Z"/>
  <path style="fill: rgb(1, 1, 129); stroke: none;" d="M 280.247 231.703 L 282.054 233.449 L 280.247 231.703 Z"/>
  <path style="fill: rgb(76, 76, 115); stroke: none;" d="M 285.669 233.449 L 287.477 235.194 L 285.669 233.449 Z"/>
  <path style="fill: rgb(62, 106, 125); stroke: none;" d="M 220.604 238.685 L 222.411 240.431 L 220.604 238.685 Z"/>
  <path style="fill: rgb(76, 76, 115); stroke: none;" d="M 271.21 238.685 L 273.018 240.431 L 271.21 238.685 M 215.182 240.431 L 216.989 242.176 L 215.182 240.431 Z"/>
  <path style="fill: rgb(1, 1, 129); stroke: none;" d="M 265.788 240.431 L 267.595 242.176 L 265.788 240.431 Z"/>
  <path style="fill: rgb(1, 1, 129); stroke: none;" d="M 209.76 242.176 L 211.567 243.922 L 209.76 242.176 Z"/>
</svg>