<?xml version="1.0" encoding="utf-8"?>
<svg viewBox="70.54 56.264 136.767 149.863" xmlns="http://www.w3.org/2000/svg">
  <g transform="matrix(0.366596, 0, 0, 0.366596, 75.6688, 57.800957)">
    <g fill-rule="evenodd">
      <path d="m213.66,155.04c4.895,3.826 12.058.924 16.796,2.016 8.25,1.9 9.411,10.649 14.108,17.468-1.665,10.693-.21,18.816-4.03,31.576 14.501,18.194 32.206,37.237 48.372,58.45 7.709,10.116 15.295,20.344 23.514,30.232 4.062,4.886 8.761,9.185 12.766,14.108 4.015,4.937 6.751,11.032 10.749,15.452 2.754,3.044 6.303,4.073 8.062,8.733 2.526,6.688 2.147,15.145 3.359,25.53 1.201,10.288 2.229,24.323-10.077,22.842-.425,13.359-13.312,16.961-26.202,16.796-6.353-.081-17.252-.456-20.154-3.358-6.836-6.836-1.405-14.216-5.375-21.499-9.208.329-21.4-5.082-20.155-17.468-8.819-2.118-17.438-3.36-22.842-4.031-1.521-3.629-3.513-6.789-3.359-12.093-3.189-3.081-9.838-2.703-13.437-5.375 .004-9.304 3.991-17.359 0-24.186-4.752-8.126-15.229-7.586-23.515-12.765 2.25-12.762-.433-26.937-14.108-23.515-7.922-8.426-15.169-17.527-21.499-27.545-5.738,2.466-12.326,2.196-18.139,0-7.528-4.992-9.549-14.843-15.453-22.171-7.896-9.801-19.275-19.6-32.92-22.171-12.851-2.421-35.349,2.096-52.403-.672-8.3-1.346-18.624-3.823-25.53-8.062-14.678-9.01-22.553-30.328-22.17-48.372 .477-22.526 13.424-35.955 16.124-55.091-2.609-20.479-10.025-46.809 7.386-71.206 9.554-13.387 30.497-22.846 55.763-16.796 10.659,2.552 19.245,9.732 30.232,10.75 14.119,1.307 26.518-3.475 40.31-1.344 6.407.99 17.307,3.729 22.843,6.718 17.152,9.263 32.838,22.736 42.325,36.951 6.795,14.375 9.9,24.941 5.375,42.326-2.416,9.283-7.397,15.749-10.077,24.858-1.392,4.73-4.125,9.526-4.031,12.765 .21,7.48 5.83,12.85 7.39,20.14zm-12.77-1.34c-22.868-27.112 15.696-61.452 8.062-94.729-6.54-13.461-19.762-22.097-31.576-30.232-1.227-.845-2.187-2.597-3.359-3.359-21.715-14.122-41.295-5.853-69.871-8.062-10.206-.788-17.005-5.65-24.85-8.733-9.839-3.866-19.638-2.974-30.232-1.344-11.105,7.124-25.459,14.956-24.859,28.889 .43,9.986 8.951,19.483 8.734,30.904-3.464,27.894-27.43,52.86-23.514,83.979 6.358,17.093 17.829,37.452 38.294,39.638 6.974.745 12.436.49 18.812,0 12.107-.931 23.91-8.797 38.966-6.718 13.083,1.807 24.327,11.416 28.889,20.155 2.928,5.609 4.706,7.837 7.39,13.437 5.629,11.742 6.545,26.472 22.843,16.796 7.97,7.931 14.124,17.678 21.499,26.202 2.03-10.25 17.738-11.124 22.843-3.359 4.339,6.601 2.193,17.948 3.358,26.873 14.938-1.315 34.966,12.555 28.218,34.936 3.6,4.91 7.483,9.536 9.405,16.124 8.037.09 13.765-1.597 21.499,2.016 1.714,6.309 1.166,8.546 2.688,13.437 6.981,1.764 11.819,1.51 20.154,3.359-38.018-54.021-85.381-98.702-122.94-153.18-3.983-7.438-8.695-14.147-14.78-19.483-4.258,3.132-8.812,5.969-12.093,10.078 14.161,21.67 29.661,42.002 45.013,62.48-8.334-3.087-11.016-11.827-16.124-18.14-5.974-5.672-9.651-13.639-15.452-19.483-4.895-9.662-12.907-16.205-17.468-26.201 5.111-3.847 10.25-7.666 14.78-12.093-7.612-10.642-19.132-21.833-18.14-36.951-19.521,14.924-47.262,30.568-75.917,24.858-2.472-1.559-5.097-2.964-8.734-3.359-14.561-17.71-18.362-41.708-8.734-61.809 4.199-8.766 12.42-8.996 21.499-12.093 18.341-6.256 31.881-20.508 40.982-34.263 .203-4.647.147-5.565 1.344-9.406 19.649-4.381 34.438-5.968 53.075,5.375 5.78,6.965 12.535,11.588 15.453,20.155 8.375,24.596-15.432,48.531-27.545,63.152 3.07,5.215 9.28,7.292 12.093,12.765 16.595,12.827 28.037,30.876 40.31,47.701s25.859,33.038 38.295,49.716c25.208,33.808 51.848,66.182 78.604,98.088 2.468,4.64 6.734,9.634 10.749,14.108 3.547,3.952 8.284,11.671 12.094,10.749-.238-5.417-2.719-21.422-4.703-31.576-28.586-32.519-55.406-71.044-85.323-105.48-4.228-4.866-9.807-10.305-14.78-16.796-3.904-5.096-13.25-13.786-14.108-18.14-3.1-15.718 20.304-22.658 6.047-31.577-8.8,2.16-20.84-2.24-26.89-9.41zm-178.04-96.743c1.198,6.366 1.271,14.427 5.375,18.812 2.948-13.466-.521-23.585-6.046-34.936-2.434,6.681-.202,11.481.671,16.124zm121.6-10.077c-7.442-2.185-23.813-.745-30.904,5.375-4.495,3.879-6.111,12.186-10.75,17.468-.871.992-2.84,1.539-4.031,2.687-7.93,7.647-18.246,15.424-28.889,19.483-5.573,2.125-11.582,1.774-15.452,5.375-6.414,5.967-8.902,25.063-8.062,36.279 .56,7.468 2.946,20.325 6.718,24.858 5.089,6.115 27.036,6.278 32.92,5.375 16.969-2.606 32.628-12.606 45.685-22.17 13.524-9.907 25.696-21.329 34.263-33.592 14.46-27.062 3.94-53.672-21.5-61.14zm51.73,80.62c7.651-15.91 25.282-37.069 15.452-58.45 1.14,22.929-12.63,36.83-15.45,58.45zm129.66,228.42c-30.701-38.469-62.52-75.772-92.042-114.88-22.446-29.736-43.888-60.003-67.855-88.01-4.379-1.893-6.552-4.948-10.749-8.734-2.74-2.472-7.888-9.031-12.093-8.062-6.067,1.397-3.227,13.018-2.015,16.124 5.137,13.175 18.795,27.446 26.873,38.294 9.312,12.507 20.048,28.774 27.545,39.639 43.878,50.403 86.709,101.85 127.65,155.19 5.909-4.145-1.765-10.136-4.031-14.108-3.742-4.319-6.604-9.52-11.421-12.765-36.698-46.663-77.2-92.771-112.87-140.41-12.206-16.302-25.34-31.738-36.951-47.7-5.746-7.897-14.797-20.249-13.437-30.232 5.635,2.891 10.894,6.965 14.78,11.421 6.173,7.076 11.808,15.797 17.468,23.514 39.261,53.526 84.062,103.05 122.94,156.54 8.669,10.72 18.401,22.49 26.873,32.92 2.663,3.278 5.464,8.507 10.078,8.734 .36-7.43-6.82-12.54-10.75-17.46zm-171.99-199.53c11.538,19.814 25.71,36.994 40.982,53.075 14.26,18.884 28.65,37.637 42.325,57.105 16.106,16.362 30.521,35.901 45.685,54.419 13.045,15.932 27.688,32.159 40.311,47.7 1.102,1.356 3.306,5.565 6.046,4.031-6.933-11.275-16.419-20.988-24.857-31.576-13.444-16.868-27.216-34.146-39.639-51.06-4.764-6.486-9.639-13.405-14.78-19.483-27.239-32.207-51.572-62.943-77.261-96.744-3.701-4.869-12.311-18.562-16.124-19.483-.981-.237-2.345-.308-3.359.672 .54.15.79.57.68,1.35zm-78.601,40.98c6.866-.748 14.566-3.732 21.499-4.031 9.489-.41 22.825,3.864 32.248,8.733-6.141-8.311-14.275-14.168-24.858-15.452-18.212-2.21-36.195,9.972-57.778,6.718-19.085-2.878-28.133-17.652-36.279-32.92 3.656,33.11 44.251,39.23 65.166,36.95zm153.18,1.34c.396-6.728 4.096-16.658 3.359-24.186-3.6,5.28-12.46,18.61-3.36,24.19zm-38.3,62.49c8.052-.886 13.319,1.012 18.14,3.359-1.629-8.474-6.955-10.101-16.796-9.406-.5,2.43-2.64,3.61-1.34,6.05zm21.5,27.54c13.495,4.829 25.629,12.432 24.858,29.561 10.82-13.45-10.04-37.4-24.86-29.56zm23.52,38.3c5.407,1.535 8.195,5.689 11.421,9.405 .36-7.71-7.08-18.38-11.42-9.4zm14.78,11.42c2.808,7.685 12.863,5.246 20.155,7.391 .918-1.991-.394-2.926 0-6.047-5.34-2.61-10.77-2.4-20.16-1.34zm39.63,25.52c.821-3.622-.111-3.242.672-7.39-3.7-3.257-11.541-1.139-14.78-3.359-1.37,7.79 7.76,8.71 14.11,10.75zm5.38,15.46c7.53-.193 7.857-1.38 18.14-1.344-5.724-7.938-11.153-16.168-18.14-22.843-5.04,6.38-1.06,13.1 0,24.18zm0,2.68c-.288,3.199.8,5.024 2.016,6.719 11.778-.573 15.608,1.291 22.171-2.688-5.19-8.8-14.08-4.1-24.19-4.03z" style="fill: rgba(0, 0, 0, 0); stroke: rgb(20, 7, 163);"/>
      <path d="m227.77,163.11c14.257,8.918-9.146,15.858-6.047,31.577 .858,4.354 10.204,13.044 14.108,18.14 4.974,6.491 10.553,11.93 14.78,16.796 29.917,34.434 56.737,72.959 85.323,105.48 1.984,10.154 4.465,26.159 4.703,31.576-3.81.922-8.547-6.797-12.094-10.749-4.015-4.475-8.281-9.469-10.749-14.108-26.757-31.906-53.396-64.28-78.604-98.088-12.436-16.678-26.022-32.893-38.295-49.716s-23.715-34.874-40.31-47.701c-2.812-5.473-9.022-7.549-12.093-12.765 12.114-14.622 35.92-38.556 27.545-63.152-2.917-8.567-9.673-13.19-15.453-20.155-18.637-11.342-33.426-9.755-53.075-5.375-1.196,3.84-1.141,4.759-1.344,9.406-9.101,13.755-22.641,28.007-40.982,34.263-9.079,3.097-17.3,3.327-21.499,12.093-9.628,20.101-5.827,44.099 8.734,61.809 3.637.395 6.262,1.8 8.734,3.359 28.655,5.71 56.396-9.934 75.917-24.858-.993,15.118 10.527,26.309 18.14,36.951-4.53,4.427-9.669,8.246-14.78,12.093 4.561,9.996 12.573,16.539 17.468,26.201 5.801,5.845 9.479,13.812 15.452,19.483 5.108,6.312 7.79,15.053 16.124,18.14-15.353-20.479-30.852-40.811-45.013-62.48 3.281-4.109 7.835-6.946 12.093-10.078 6.085,5.336 10.797,12.045 14.78,19.483 37.564,54.477 84.928,99.158 122.94,153.18-8.335-1.85-13.173-1.596-20.154-3.359-1.521-4.891-.974-7.128-2.688-13.437-7.734-3.612-13.462-1.926-21.499-2.016-1.922-6.588-5.806-11.214-9.405-16.124 6.748-22.381-13.28-36.251-28.218-34.936-1.165-8.925.98-20.272-3.358-26.873-5.104-7.765-20.812-6.891-22.843,3.359-7.375-8.524-13.529-18.271-21.499-26.202-16.298,9.676-17.213-5.054-22.843-16.796-2.684-5.6-4.462-7.827-7.39-13.437-4.562-8.739-15.806-18.348-28.889-20.155-15.057-2.079-26.859,5.788-38.966,6.718-6.376.49-11.838.745-18.812,0-20.465-2.187-31.936-22.545-38.294-39.638-3.916-31.119 20.05-56.085 23.514-83.979 .217-11.421-8.304-20.918-8.734-30.904-.6-13.933 13.754-21.766 24.858-28.889 10.594-1.63 20.394-2.522 30.232,1.344 7.845,3.083 14.645,7.945 24.858,8.734 28.576,2.209 48.156-6.06 69.871,8.062 1.173.763 2.133,2.515 3.359,3.359 11.814,8.136 25.036,16.771 31.576,30.232 7.634,33.277-30.931,67.617-8.062,94.729 6.03,7.18 18.07,11.58 26.86,9.42zm-176.03-97.419c11.645,5.272 30.837-5.26 32.92-21.499 1.652-12.879-5.943-19.492-13.437-24.858-6.17-.622-10.818-.736-12.765,0-23.925,7.106-27.689,36.864-6.718,46.357z" style="fill: rgba(0, 0, 0, 0); stroke: rgb(20, 7, 163);"/>
      <path d="m58.463,19.334c1.946-.736 6.594-.622 12.765,0 7.493,5.366 15.089,11.979 13.437,24.858-2.083,16.238-21.275,26.771-32.92,21.499-20.972-9.493-17.208-39.251 6.718-46.357zm-9.406,8.734c17.68-3.333 27.641,6.224 30.232,20.155 11.836-20.853-18.61-35.366-30.232-20.155zm-2.015,12.093c-3.99,6.278 1.59,19.235 9.406,20.827 21.22,4.323 15.756-30.062-.672-26.202-2.932.689-7.38,3.243-8.734,5.375z" style="fill: rgba(0, 0, 0, 0); stroke: rgb(20, 7, 163);"/>
      <path d="m79.29,48.223c-2.591-13.931-12.553-23.487-30.232-20.155 11.621-15.211 42.067-.698 30.232,20.155z" style="fill: rgba(0, 0, 0, 0); stroke: rgb(20, 7, 163);"/>
      <path d="m22.184,40.833c5.525,11.351 8.995,21.47 6.046,34.936-4.104-4.384-4.177-12.446-5.375-18.812-.873-4.643-3.105-9.443-.671-16.124z" style="fill: rgba(0, 0, 0, 0); stroke: rgb(20, 7, 163);"/>
      <path d="m211.64 69.05c9.83 21.38-7.801 42.54-15.452 58.45 2.82-21.62 16.59-35.521 15.45-58.45z" style="fill: rgba(0, 0, 0, 0); stroke: rgb(20, 7, 163);"/>
      <path d="m336.6,373.39c-4.614-.228-7.415-5.456-10.078-8.734-8.472-10.43-18.204-22.2-26.873-32.92-38.884-53.49-83.685-103.01-122.94-156.54-5.661-7.717-11.295-16.438-17.468-23.514-3.887-4.456-9.146-8.53-14.78-11.421-1.36,9.984 7.691,22.335 13.437,30.232 11.611,15.962 24.745,31.398 36.951,47.7 35.668,47.643 76.17,93.751 112.87,140.41 4.816,3.245 7.679,8.445 11.421,12.765 2.267,3.973 9.94,9.964 4.031,14.108-40.94-53.341-83.771-104.79-127.65-155.19-7.497-10.864-18.232-27.132-27.545-39.639-8.078-10.849-21.736-25.12-26.873-38.294-1.211-3.106-4.052-14.727 2.015-16.124 4.205-.969 9.354,5.59 12.093,8.062 4.197,3.786 6.37,6.841 10.749,8.734 23.968,28.007 45.409,58.274 67.855,88.01 29.522,39.111 61.341,76.415 92.042,114.88 3.92,4.91 11.1,10.02 10.74,17.46z" style="fill: rgba(0, 0, 0, 0); stroke: rgb(20, 7, 163);"/>
      <path d="m153.19,155.04c1.015-.979 2.378-.909 3.359-.672 3.813.921 12.423,14.614 16.124,19.483 25.688,33.801 50.021,64.537 77.261,96.744 5.142,6.078 10.017,12.997 14.78,19.483 12.423,16.913 26.194,34.191 39.639,51.06 8.438,10.588 17.925,20.301 24.857,31.576-2.74,1.534-4.944-2.675-6.046-4.031-12.623-15.541-27.266-31.769-40.311-47.7-15.163-18.518-29.578-38.057-45.685-54.419-13.675-19.469-28.065-38.222-42.325-57.105-15.272-16.081-29.444-33.261-40.982-53.075 .11-.77-.14-1.19-.67-1.34z" style="fill: rgba(0, 0, 0, 0); stroke: rgb(20, 7, 163);"/>
      <path d="m231.8,174.53c.736,7.528-2.964,17.458-3.359,24.186-9.1-5.59-.24-18.92 3.36-24.19z" style="fill: rgba(0, 0, 0, 0); stroke: rgb(20, 7, 163);"/>
      <path d="m191.49,255.15c9.841-.694 15.167.933 16.796,9.406-4.82-2.348-10.088-4.245-18.14-3.359-1.31-2.44.83-3.62 1.34-6.05z" style="fill: rgba(0, 0, 0, 0); stroke: rgb(20, 7, 163);"/>
      <path d="m236.5,318.3c.771-17.129-11.363-24.731-24.858-29.561 14.82-7.84 35.68,16.11 24.86,29.56z" style="fill: rgba(0, 0, 0, 0); stroke: rgb(20, 7, 163);"/>
      <path d="m246.58 336.44c-3.226-3.716-6.014-7.87-11.421-9.405 4.34-8.98 11.78 1.69 11.42 9.4z" style="fill: rgba(0, 0, 0, 0); stroke: rgb(20, 7, 163);"/>
      <path d="m270.09,339.8c-.394,3.121.918,4.056 0,6.047-7.292-2.145-17.348.294-20.155-7.391 9.39-1.06 14.82-1.27 20.15,1.34z" style="fill: rgba(0, 0, 0, 0); stroke: rgb(20, 7, 163);"/>
      <path d="m275.47,353.24c3.239,2.221 11.08.103 14.78,3.359-.783,4.147.149,3.768-.672,7.39-6.36-2.05-15.49-2.97-14.11-10.75z" style="fill: rgba(0, 0, 0, 0); stroke: rgb(20, 7, 163);"/>
      <path d="m294.95,355.25c6.986,6.675 12.416,14.905 18.14,22.843-10.282-.036-10.609,1.15-18.14,1.344-1.06-11.07-5.04-17.79 0-24.18z" style="fill: rgba(0, 0, 0, 0); stroke: rgb(20, 7, 163);"/>
      <path d="m319.14,386.16c-6.562,3.979-10.393,2.114-22.171,2.688-1.216-1.694-2.304-3.52-2.016-6.719 10.11-.08 19-4.78 24.19,4.03z" style="fill: rgba(0, 0, 0, 0); stroke: rgb(20, 7, 163);"/>
      <path d="m10.09,160.42c8.146,15.268 17.194,30.042 36.279,32.92 21.583,3.254 39.565-8.928 57.778-6.718 10.583,1.284 18.717,7.141 24.858,15.452-9.423-4.87-22.759-9.143-32.248-8.733-6.932.299-14.633,3.283-21.499,4.031-20.919,2.28-61.514-3.84-65.173-36.95z" style="fill: rgba(0, 0, 0, 0); stroke: rgb(20, 7, 163);"/>
    </g>
  </g>
</svg>