<?xml version="1.0" encoding="utf-8"?>
<svg viewBox="80.984 90.441 120.98 99.764" xmlns="http://www.w3.org/2000/svg">
  <g transform="matrix(0.212105, 0, 0, 0.212105, 51.990318, 85.72924)">
    <g>
      <path stroke-width="2.8346" stroke-linecap="round" stroke-linejoin="round" stroke-miterlimit="10" d=" M684.8,382.5c-0.8-1.3-0.1-2.7,0-4c1.4-10.3-7.3-17.4-17.4-14.8c-5.2,1.4-8.9,4.9-11.6,9.4c-0.7,1.1-0.5,2.8-0.6,4.2" style="fill: none; stroke: rgb(14, 14, 152);"/>
      <path stroke-width="2.8346" stroke-linecap="round" stroke-linejoin="round" stroke-miterlimit="10" d=" M646.1,367c0.6-3.1,1.7-6,1.5-9.2c-0.8-11.1-9.7-18.6-21.1-15.7c-1.9,0.5-3.1,2.3-5.1,2.6" style="fill: none; stroke: rgb(14, 14, 152);"/>
      <path stroke-width="2.8346" stroke-linecap="round" stroke-linejoin="round" stroke-miterlimit="10" d=" M612.9,341.8c1.6-0.1,3.4,0.2,4.5-1.2c1.6-2,2.2-4.7,1.9-7.1c-0.7-6.6-2.7-11.1-10.1-13.4c-4.1-1.3-9.3,0.4-11.7,3.7" style="fill: none; stroke: rgb(14, 14, 152);"/>
      <path stroke-width="2.8346" stroke-linecap="round" stroke-linejoin="round" stroke-miterlimit="10" d=" M599.1,321.5c-1.2-2.4-2.1-5-3.6-7.2c-4.2-6.3-13.6-6.9-19.9-3.8c-1.6,0.8-2.7,2.3-4.5,2.6" style="fill: none; stroke: rgb(14, 14, 152);"/>
      <path stroke-width="2.8346" stroke-linecap="round" stroke-linejoin="round" stroke-miterlimit="10" d=" M590.7,343.2c1.9-0.4,3.8-2.6,3.7-4.3c-0.1-1.7-1.2-2.7-2.6-3.1c-1.3-0.3-2.3,0.4-3.2,1.6c-0.9,1.4-1.1,3.2-2.8,4.1 c-1.2-0.5-1.9-1.4-2.3-2.7c-0.4-1.5-1.2-2.1-2.8-1.7c-1.5,0.4-2.1,1.3-2.3,2.9c-0.2,1.9,0.9,3.2,1.5,4.7c-0.5,0.9-1.2,0.5-1.8,0.7 c-1.6,0.5-2,1.6-1.4,3.1c1.3,3.4,4.5,4.1,7.4,1.7c0.2-0.2,0.6-0.2,0.8-0.3" style="fill: none; stroke: rgb(14, 14, 152);"/>
      <path stroke-width="2.8346" stroke-linecap="round" stroke-linejoin="round" stroke-miterlimit="10" d=" M590.4,349.2c0.8,2.4-0.3,4.4-1.5,6.2c-1,1.5-3,1.9-4.5,1.4c-2.1-0.7-1.9-2.9-1.7-4.7" style="fill: none; stroke: rgb(14, 14, 152);"/>
      <path stroke-width="2.8346" stroke-linecap="round" stroke-linejoin="round" stroke-miterlimit="10" d=" M592.9,343c0.5,0.1,1.1,0,1.4,0.3c0.9,0.7,2.7-0.5,2.8,1.4c0.1,1.7,0.2,3.3-1.9,4.4c-1.5,0.8-2.8,1-4.3,1" style="fill: none; stroke: rgb(14, 14, 152);"/>
      <path stroke-width="2.8346" stroke-linecap="round" stroke-linejoin="round" stroke-miterlimit="10" d=" M666.6,394.1c2.8,1.8,3.7,1.6,5.7-1.2c-0.2-1.1-1.2-1.6-2.1-2.3c0.6-0.7,1.2-1.5,1.8-2.2c0.7-0.9,1.5-1.9,0.6-3.1 c-1.1-1.3-2.4-0.9-3.7-0.3c-0.9,0.5-1.7,1.4-3,1.4c-0.4-1.3-0.8-2.7-1.2-4c-4-0.5-5.9,1.6-5.1,5.7" style="fill: none; stroke: rgb(14, 14, 152);"/>
      <path stroke-width="2.8346" stroke-linecap="round" stroke-linejoin="round" stroke-miterlimit="10" d=" M661.8,389c-1.2-0.6-2.5-0.4-3.7-0.3c-1.5,0.1-2,1.3-2.3,2.5c-0.3,1.4,0.7,2.1,1.7,2.5c1.2,0.5,2.5,0.8,3.8,1.2 c0,1.8,0.3,3.4,2.7,3.7c2.4,0.3,3.1-1.3,3.7-3.2" style="fill: none; stroke: rgb(14, 14, 152);"/>
      <path stroke-width="2.8346" stroke-linecap="round" stroke-linejoin="round" stroke-miterlimit="10" d=" M599.2,381.6c-1.4,0.7-3.3,1.3-2.8,3.4c0.3,1.4,1.4,2.5,3.1,2.6c1.8,0.1,3.6,0.2,4-2.3" style="fill: none; stroke: rgb(14, 14, 152);"/>
      <path stroke-width="2.8346" stroke-linecap="round" stroke-linejoin="round" stroke-miterlimit="10" d=" M610,384.8c1.7,0,2.8-0.9,3.7-2.3c1.3-2,0.7-3.2-1.7-3.4c-0.5,0-1-0.2-1.4-0.3c-0.3-1.6,1.3-2.7,1.1-4.3c-3.4-2.9-5.4-2-6.8,2.9 c-1.8-1.4-1.8-1.4-2.3-4c-3.1-0.3-4.3,0.3-4.8,2.6c-0.5,1.9,0.9,4.9,2.6,5.7c0.1,0.1,0.4-0.2,0.6-0.3" style="fill: none; stroke: rgb(14, 14, 152);"/>
      <path stroke-width="2.8346" stroke-linecap="round" stroke-linejoin="round" stroke-miterlimit="10" d=" M608.3,383.9c2,1.5,2.3,3,0.9,4.8c-1.1,1.5-3,1.6-4.5,0.3c-0.6-0.5-1-1.1-1.4-1.7" style="fill: none; stroke: rgb(14, 14, 152);"/>
      <path stroke-width="2.8346" stroke-linecap="round" stroke-linejoin="round" stroke-miterlimit="10" d=" M641.9,369.4c4.8-3.7,9.4-2.7,13.4,3.1" style="fill: none; stroke: rgb(14, 14, 152);"/>
      <path stroke-width="2.8346" stroke-linecap="round" stroke-linejoin="round" stroke-miterlimit="10" d=" M617.7,341.3c3.5,1.8,3.7,5.2,4,8.5" style="fill: none; stroke: rgb(14, 14, 152);"/>
    </g>
    <g>
      <path stroke-width="2.8346" stroke-linecap="round" stroke-linejoin="round" stroke-miterlimit="10" d=" M349,436.2c0.9-1.2,2.2-2.6,1.3-3.9c-0.9-1.4-2.1-2.8-4.2-2.9c-1.5-0.1-3,0.1-3.9-2.2c-0.9-2.5-5.8-2.7-8.4-0.9" style="fill: none; stroke: rgb(14, 14, 152);"/>
      <path stroke-width="2.8346" stroke-linecap="round" stroke-linejoin="round" stroke-miterlimit="10" d=" M295.8,424.3c-0.8,1.7-1.6,3.3-3.2,4.3c1.3,3.3,3.3,4.6,6.6,4.1c1.3-0.2,2.5-0.1,3.7,0.3c2.9,0.9,5.5,0,6.8-2.6 c1.3-2.4-0.7-4.2-1.4-6.2c-0.7-1.9-2.2-1.6-3.7-1.4c-0.8,0.1-1.5,0.3-2.2,0.4c-1.7,2.9-0.3,6.1-1.5,8.9" style="fill: none; stroke: rgb(14, 14, 152);"/>
      <path stroke-width="2.8346" stroke-linecap="round" stroke-linejoin="round" stroke-miterlimit="10" d=" M334.5,440.5c-0.5,1.8-1.2,3.6-1.3,5.4c-0.1,2.4-1.5,3.6-3.5,3.9c-2.2,0.3-3.9-1.2-4.8-3.1c-0.9-1.8-0.6-3.7,1.1-5.1 c1.3-1.1,2.6-2.1,4-3.1" style="fill: none; stroke: rgb(14, 14, 152);"/>
      <path stroke-width="2.8346" stroke-linecap="round" stroke-linejoin="round" stroke-miterlimit="10" d=" M301.7,423.2c-0.5-1.1-1.9-0.5-2.5-1.2c-1.3-1.3-1.8-3-0.8-4.8c1.3-0.3,2.9-0.4,4.2-1.4c-0.7-1.9-0.3-4.3-2.7-5.4 c-1.8-0.9-3.7-1.4-5.7-1.1c-3.3,0.4-4,1.4-3.7,4.4c-2.7,0.2-5.7-0.3-6.9,3.3c-0.9,2.8,0.4,4.5,2.6,6" style="fill: none; stroke: rgb(14, 14, 152);"/>
      <path stroke-width="2.8346" stroke-linecap="round" stroke-linejoin="round" stroke-miterlimit="10" d=" M326.8,435.4c1.3-0.2,1.6,0.9,2.3,1.7c3.4,3.9,7.7,4,11,0c0.6-0.7,1.1-0.6,1.8-0.8c2.1-0.7,4.2-0.1,6.3,0.1 c3.4,0.3,4.8,3.6,3.1,6.5c-1.4,2.5-3.4,4-6.5,3.4" style="fill: none; stroke: rgb(14, 14, 152);"/>
      <path stroke-width="2.8346" stroke-linecap="round" stroke-linejoin="round" stroke-miterlimit="10" d=" M342.7,443.3c0.4,1.3,2.4,1.7,1.5,3.7c-0.9,2-2.4,2.9-4.3,3c-2.3,0.2-4.5-0.1-6.3-1.9" style="fill: none; stroke: rgb(14, 14, 152);"/>
      <path stroke-width="2.8346" stroke-linecap="round" stroke-linejoin="round" stroke-miterlimit="10" d=" M311.1,412.6c1.7,0,3.3-0.8,5.2,0.2c4.5,2.2,5.1,4.4,1.7,8.3" style="fill: none; stroke: rgb(14, 14, 152);"/>
      <path stroke-width="2.8346" stroke-linecap="round" stroke-linejoin="round" stroke-miterlimit="10" d=" M310.3,413.2c1.2-1.8,0.1-3-1.2-3.9c-1.6-1.2-3.6-1.2-5.3-0.3c-0.9,0.5-1.6,1.4-2,2.5" style="fill: none; stroke: rgb(14, 14, 152);"/>
      <path stroke-width="2.8346" stroke-linecap="round" stroke-linejoin="round" stroke-miterlimit="10" d=" M325.6,435.4c-1.5,0-3,0-4.5,0c-3.2,0.1-4.7,1.5-4.6,4.3c0.1,2.8,2.4,5.1,5.1,4.8c0.8-0.1,1.5-0.1,2.3-0.2" style="fill: none; stroke: rgb(14, 14, 152);"/>
      <path stroke-width="2.8346" stroke-linecap="round" stroke-linejoin="round" stroke-miterlimit="10" d=" M297.5,419.2c-3.2,0.6-6.6,0.8-9.4,2.8c-1.2,0.9-2.1,1.6-1.5,3.5c0.7,1.8,1.4,3.4,3.5,3.7c0.7,0.1,1.5,0,2.3,0" style="fill: none; stroke: rgb(14, 14, 152);"/>
      <path stroke-width="2.8346" stroke-linecap="round" stroke-linejoin="round" stroke-miterlimit="10" d=" M333.6,426.3c-1.9-0.9-3.4-2.9-6-2c-2,0.6-3.1,2.3-2.3,4c1.5,3.4,3.9,4.9,7.7,4.5c0.4,0,0.9,0.2,1.4-0.8c0.1-1.5-0.5-3.5-0.9-5.5" style="fill: none; stroke: rgb(14, 14, 152);"/>
      <path stroke-width="2.8346" stroke-linecap="round" stroke-linejoin="round" stroke-miterlimit="10" d=" M302.9,416.3c2.3,0.9,5.6,0.4,5.5,4.5c2.6-0.5,5,0,7.3,0.1c2.3,0.1,4.4,1,5.1,3.6c0.4,1.4,0.5,2.5-0.9,3.4 c-1.6,1.1-2.5,3.3-5.1,3.2c-1.7-0.1-2.7-1.3-4.3-1.5" style="fill: none; stroke: rgb(14, 14, 152);"/>
      <path stroke-width="2.8346" stroke-linecap="round" stroke-linejoin="round" stroke-miterlimit="10" d=" M291.5,414.1c1.9,1.4,4.5,1.1,6.3,2.8" style="fill: none; stroke: rgb(14, 14, 152);"/>
      <path stroke-width="2.8346" stroke-linecap="round" stroke-linejoin="round" stroke-miterlimit="10" d=" M317.1,431.1c0,1.6,1.4,2.7,1.7,4.3" style="fill: none; stroke: rgb(14, 14, 152);"/>
      <path stroke-width="2.8346" stroke-linecap="round" stroke-linejoin="round" stroke-miterlimit="10" d=" M310,413.8c-1,1.1-2.1,2.3-3.1,3.4" style="fill: none; stroke: rgb(14, 14, 152);"/>
      <path stroke-width="2.8346" stroke-linecap="round" stroke-linejoin="round" stroke-miterlimit="10" d=" M321.4,427.4c1.1,0.2,2.3,0.4,3.4,0.6" style="fill: none; stroke: rgb(14, 14, 152);"/>
      <path stroke-width="2.8346" stroke-linecap="round" stroke-linejoin="round" stroke-miterlimit="10" d=" M334.7,432.8c2,1.4,3.8,1.8,5.4-0.6" style="fill: none; stroke: rgb(14, 14, 152);"/>
      <path stroke-width="2.8346" stroke-linecap="round" stroke-linejoin="round" stroke-miterlimit="10" d=" M339,439.1c0.9,1,1.7,2.1,2.6,3.1" style="fill: none; stroke: rgb(14, 14, 152);"/>
      <path stroke-width="2.8346" stroke-linecap="round" stroke-linejoin="round" stroke-miterlimit="10" d=" M342.4,429.7c-0.9,0.4-0.7,1.7-1.7,2" style="fill: none; stroke: rgb(14, 14, 152);"/>
    </g>
    <g>
      <path stroke-width="2.8346" stroke-linecap="round" stroke-linejoin="round" stroke-miterlimit="10" d=" M511.9,402.1c-3.3-1.5-7.3-0.5-9.4,2.3c-1,1.2-0.7,2.4,0,3.4c1.8,2.7,4.6,3.2,7.7,3.1" style="fill: none; stroke: rgb(14, 14, 152);"/>
      <path stroke-width="2.8346" stroke-linecap="round" stroke-linejoin="round" stroke-miterlimit="10" d=" M504.8,410.6c-1,1.3-2.8,0.7-4,1.6c-1.8,1.3-2,2.9-1.6,4.6c0.6,2.2,3.7,4.1,5.6,3.7c0.6-0.1,1.1-0.4,1.7-0.6" style="fill: none; stroke: rgb(14, 14, 152);"/>
      <path stroke-width="2.8346" stroke-linecap="round" stroke-linejoin="round" stroke-miterlimit="10" d=" M522.7,408.7c2.1-0.4,4.1-0.9,6.3-0.9c3.2,0,5.5,1.5,5.7,4c0.2,3-0.7,4.4-4.5,5.1c-0.5,0.1-0.9,0.2-1.4,0.3" style="fill: none; stroke: rgb(14, 14, 152);"/>
      <path stroke-width="2.8346" stroke-linecap="round" stroke-linejoin="round" stroke-miterlimit="10" d=" M518.4,422c-1.4,1.6-3,2.8-5.1,3.1c-2.5,0.4-6.3-2.4-6.5-4.8c0-0.5,0.2-1.2,0.6-1.7c0.8-1,1.8-1.8,2.5-2.9c1.3-1.9,2.9-2.6,5.1-1.7 c1.6,0.7,3.2-0.1,4.5-0.7c1.8-0.7,3.1-0.2,4.6,0.6c1.5,0.7,2.4,2.1,3.9,2.7c1.3,0.5,0.6,4.7-0.8,5.9c-1.5,1.2-4.5,1.4-6.3,0.6 c-2.9-1.3-2.7-4.4-3.9-6.6c-0.3-0.5-0.8-1.2-0.7-1.9" style="fill: none; stroke: rgb(14, 14, 152);"/>
      <path stroke-width="2.8346" stroke-linecap="round" stroke-linejoin="round" stroke-miterlimit="10" d=" M530.4,407.5c0.9-1.7,2-3.6,0.5-5.4c-1.7-1.9-3.9-2-6.2-0.9c-0.4,0.2-0.9,0.2-1.4,0.3" style="fill: none; stroke: rgb(14, 14, 152);"/>
      <path stroke-width="2.8346" stroke-linecap="round" stroke-linejoin="round" stroke-miterlimit="10" d=" M523,401.5c-2-4.2-3.4-4.4-6-4c-2.6,0.4-3.7,2.2-4.4,4.1c-0.6,1.5,0.5,3,1.6,4.2c1.4,1.5,4.9,1.1,6.3-0.5c0.9-1.1,1.9-2,2.3-3.4" style="fill: none; stroke: rgb(14, 14, 152);"/>
      <path stroke-width="2.8346" stroke-linecap="round" stroke-linejoin="round" stroke-miterlimit="10" d=" M514.2,406.7c-0.7,0.4-1.4,0.7-2,1.2c-2.2,1.7-2.2,3-0.3,5.4" style="fill: none; stroke: rgb(14, 14, 152);"/>
      <path stroke-width="2.8346" stroke-linecap="round" stroke-linejoin="round" stroke-miterlimit="10" d=" M520.4,406.9c3,1.3,1.7,3.6,1.4,5.7" style="fill: none; stroke: rgb(14, 14, 152);"/>
    </g>
    <g>
      <path stroke-width="2.8346" stroke-linecap="round" stroke-linejoin="round" stroke-miterlimit="10" d=" M243.7,439.9c2.9-6.5,1.5-9.6-5.8-12.5c0.5-3.2,0-6.1-3.1-7.9c-3.7-2.2-7.8-3.3-11.9-1.6c-1.9,0.8-3.3,0.6-4.9,0.1 c-4.1-1.3-7.7,0.9-8.2,5.1c-0.1,0.4,0.3,0.9,0.5,1.4" style="fill: none; stroke: rgb(14, 14, 152);"/>
      <path stroke-width="2.8346" stroke-linecap="round" stroke-linejoin="round" stroke-miterlimit="10" d=" M209.6,423.2c-4.1-0.8-7.6,0.2-10.5,3.2c-2.1,2.1-2.2,3.7-2,10.5c-5.8,1.4-5.7,1.8-6.6,7.5c-4.8,0.9-7.6,4-9.1,8.4 c-0.7,2-0.7,4.2,0.9,5.6c1.4,1.3,2,3.8,4.5,3.8" style="fill: none; stroke: rgb(14, 14, 152);"/>
      <path stroke-width="2.8346" stroke-linecap="round" stroke-linejoin="round" stroke-miterlimit="10" d=" M228.7,443.3c-1.5-2.9-5.2-4.8-8.2-4.3c-3.8,0.7-5.9,3.3-6.5,8c-1.7,0.8-4.4-0.3-5.4,2c-1.3,3-3.1,5.2-5.9,7c-1.7,1-2,3.7-0.2,5.9 c-2.4,0.8-5.2,0.6-6,3.1c-0.4,1.3-0.3,3.1,1.3,4" style="fill: none; stroke: rgb(14, 14, 152);"/>
      <path stroke-width="2.8346" stroke-linecap="round" stroke-linejoin="round" stroke-miterlimit="10" d=" M244.6,439.9c2.8,1.3,5.3,2.6,7.2,5.3c3.2,4.6,0.9,10.7-2.4,13.7c-1.4,1.3-2.9,2.4-4,4" style="fill: none; stroke: rgb(14, 14, 152);"/>
    </g>
    <g>
      <path stroke-width="2.8346" stroke-linecap="round" stroke-linejoin="round" stroke-miterlimit="10" d=" M437.8,383.9c0.1-1.1,0.5-1.3,1.9-1.2c10,0.7,20.1,1.1,30.1,1.8c9.1,0.6,18.2,1.3,27.3,2.3c9.2,1,18.4,1.7,27.6,3.3 c6.3,1.1,12.8,1.2,19,2.4c6.2,1.2,12.6,1.9,18.8,2.6c9.3,0.9,18.2,3.7,27.3,5.6c9.1,2,18,4.5,27,6.4c9.6,2.1,19.3,3.7,29,5.8 c11.6,2.4,23.2,4.7,34.7,7.6c5,1.3,10,2.5,15.1,3.7c0.5,0.1,1.1-0.2,1.7-0.3" style="fill: none; stroke: rgb(14, 14, 152);"/>
      <path stroke-width="2.8346" stroke-linecap="round" stroke-linejoin="round" stroke-miterlimit="10" d=" M264.2,394.7c-3.8,0.9-7.6,1.9-11.4,2.8c-8.8,2.2-17.7,4.2-26.4,6.6c-13.5,3.6-26.8,8-40.1,12.5c-9.7,3.3-19.5,6.4-29.3,9.7 c-4.6,1.5-9.1,3.1-13.8,4.7c-0.3-0.6-0.5-1.2-0.7-1.8" style="fill: none; stroke: rgb(14, 14, 152);"/>
      <path stroke-width="2.8346" stroke-linecap="round" stroke-linejoin="round" stroke-miterlimit="10" d=" M437.7,383.3c-5.5-1.3-11.1-2.4-16.8-1.1c-0.2,0-0.4,0-0.6,0c-6.1-0.1-12.1,0.4-18.2,0.5c-10.2,0.1-20.3,1.3-30.4,1.4 c-4.6,0.1-9.2,0.9-14,0.3c-3.2-0.4-6.8,0.7-10.2,0.9c-3.9,0.2-7.8,0.6-11.7,0.9c-13,1.1-26,0.8-39,2.7c-10.1,1.4-20.1,3.4-30.1,5.5 c-0.6,0.1-1.5,0.6-2-0.3c-1.9-3.1-4.8-3.4-8-2.8" style="fill: none; stroke: rgb(14, 14, 152);"/>
    </g>
    <g>
      <path stroke-width="2.8346" stroke-linecap="round" stroke-linejoin="round" stroke-miterlimit="10" d=" M642.7,457.3c-5-3-10.6-4-16.2-5.1c-6.2-1.2-12.5-2.4-18.8-3.4c-3.9-0.6-8-0.6-11.9-1.2c-4.2-0.7-8.4-1-12.5-1.5 c-4.3-0.5-8.7-0.7-13.1-1.3c-5.6-0.7-11.2-1.4-16.8-2.1c-6.3-0.8-12.5-1.8-18.7-2.5c-3.8-0.4-7.6-1.2-11.4-1.7 c-4.8-0.6-9.5-1.6-14.2-2.2c-8.5-1.1-16.9-2.9-25.3-4.6c-10-2-19.9-4.1-29.9-6.3c-5-1.1-10-2.3-14.8-4.1c-1.1-0.4-1.6-1-2.4-1.8 c2.9-4.1,7-6.3,11-8.8c3-2,6.6-3.5,8.5-6.8c0.8-1.4,1.4-3,1.7-4.5c0.7-3.6-1.5-5.4-4.2-7.1c-4.2-2.7-8.5-5-13.1-6.8 c-0.8-0.3-1.7-0.6-2.3-1.4" style="fill: none; stroke: rgb(14, 14, 152);"/>
      <path stroke-width="2.8346" stroke-linecap="round" stroke-linejoin="round" stroke-miterlimit="10" d=" M411.8,406.7c0.3,0.2,0.6,0.3,0.8,0.6c5.5,5,5.2,10.4-2,14.2c-6.8,3.5-14.3,5.5-21.6,8c-4.5,1.5-8.9,3-11.7,7.4 c-2.6,4.2-2.1,6.4,2.3,9.1c7,4.4,14.9,6.8,22.8,9.1c6.8,1.9,13.7,3.4,20.5,5c10.8,2.5,21.7,4.7,32.7,6.5c8.9,1.4,17.6,3.6,26.5,5 c8.1,1.3,16.2,3,24.2,4.9c4.7,1.1,9.4,2.5,12.8,6.2" style="fill: none; stroke: rgb(14, 14, 152);"/>
      <path stroke-width="2.8346" stroke-linecap="round" stroke-linejoin="round" stroke-miterlimit="10" d=" M365.7,385c3,2.5,6.8,2.8,10.2,4c11.5,3.8,22.8,7.9,32.7,15.1c0.9,0.6,1.7,1.3,2.6,2" style="fill: none; stroke: rgb(14, 14, 152);"/>
    </g>
    <g>
      <path stroke-width="2.8346" stroke-linecap="round" stroke-linejoin="round" stroke-miterlimit="10" d=" M420,134.5c10.1,8.3,19.5,17.4,29.9,25.3c3.9,3,3.5,7.2,3.4,11.4c-0.1,6.4-0.4,12.9-0.1,19.3c0.3,5.1,0,10.2,0.1,15.4 c0.2,10.1,0.7,20.3,0.6,30.4c0,4-0.4,8,0.9,11.7c12.3,0,24.6,0.2,36.9-0.1c12.1-0.3,24.3,0.1,36.4-0.3c7.6-0.2,15.2-0.4,22.7-0.1 c6.3,0.2,12.7,0.3,19.1,0.9c5.1,0.5,10.2-0.3,15.3-0.4c1.1,0,1.5-0.7,2-1.4c1.3-1.9,1.4-4,1-6c-0.6-3.1-2.9-4.2-6.8-3.4 c-0.7,0.1-1.5,0.3-2.3,0.3c-16,0.1-32,0.1-48.1,0.4c-2.9,0-4.4-1-5.8-3.4c-3.4-6-6.8-12.1-9.8-18.3c-1.8-3.7-4.3-6.9-5.9-10.7 c-1.6-3.9-3.4-7.9-5.8-11.4c-0.3-0.4-0.2-0.9-0.3-1.4" style="fill: none; stroke: rgb(14, 14, 152);"/>
      <path stroke-width="2.8346" stroke-linecap="round" stroke-linejoin="round" stroke-miterlimit="10" d=" M230.4,197.6c-0.5,2.8-2.4,4.8-3.7,7.1c-5.8,10-11.6,19.9-17.3,29.9c-1.6,2.8-3.2,5.5-4.8,8.3c-0.4,0.6-0.8,1.1-1.4,1.4 c-2.9,1.7-4.6,6-3.7,9.1c0.5,1.9,3.4,3.1,6,2.9c6-0.4,11.9-0.7,18.3-1c-0.6,3.3,1.1,6.2-0.3,9.2c-0.2,0.5,0.1,1.3,0.2,2 c1,5,1.3,10,1.1,15.1c-0.3,12.9,0.7,25.8,0.9,38.7c0.1,10.9,0.2,21.8,0.9,32.7c0.5,7,0,14.1,0.7,21.1c0.1,0.9,0.2,1.9-0.3,2.8" style="fill: none; stroke: rgb(14, 14, 152);"/>
      <path stroke-width="2.8346" stroke-linecap="round" stroke-linejoin="round" stroke-miterlimit="10" d=" M570.2,248.8c0,16.3,0,32.6,0,48.9c0,16.3-0.3,32.6-0.3,48.9c0,16.3,0.2,32.6,0.3,48.9" style="fill: none; stroke: rgb(14, 14, 152);"/>
      <path stroke-width="2.8346" stroke-linecap="round" stroke-linejoin="round" stroke-miterlimit="10" d=" M204.5,256.8c0.3,2.6-0.2,5.3,0.5,8c1,4,2.8,6.4,7.2,6.6c3.3,0.2,4.2,1.5,4.3,5c0.1,3.2-0.1,6.4,0,9.7c0.3,12.6,0.7,25.2,1.1,37.8 c0.4,10.6,1,21.2,1.4,31.9c0.2,5,0.2,10,0.3,15.1c0,1.9,0.1,3.2,2.6,3.5c2,0.2,3.6,1.8,5.3,2.9c0.9,0.6,1.5,0.2,1.8,0.1 c7.2-3.8,12.4-1.2,13.1,6.6" style="fill: none; stroke: rgb(14, 14, 152);"/>
    </g>
    <g>
      <path stroke-width="2.8346" stroke-linecap="round" stroke-linejoin="round" stroke-miterlimit="10" d=" M389.3,300c0.6,5.7,0.2,11.4,0.3,17.1c0,2.6,0,5.1,0,7.7c0,1.7-0.6,2.6-2.3,2.6c-5,0-10,0-15.1,0c-1.9,0-2.6-1-2.6-2.8 c0-4-0.1-8-0.3-11.9c-0.2-3,0.9-5.2,3.4-6.8c4.9-3,10-5.4,15.9-5.1" style="fill: none; stroke: rgb(14, 14, 152);"/>
      <path stroke-width="2.8346" stroke-linecap="round" stroke-linejoin="round" stroke-miterlimit="10" d=" M404.4,298.9c-3.2,0.3-3.6,2.3-3.5,5.1c0.2,6.9,0,13.8,0.6,20.8c0.2,2.1,1.1,2.6,2.9,2.6c6.2-0.3,12.4,0.6,18.8-0.7 c0-6.4,0-12.8,0-19.2c0-1-0.9-1.6-1.6-2.3c-4.7-4.5-10.5-6.1-16.8-6.2" style="fill: none; stroke: rgb(14, 14, 152);"/>
    </g>
    <path stroke-width="2.8346" stroke-linecap="round" stroke-linejoin="round" stroke-miterlimit="10" d=" M408.4,350.9c1.3-1,0.9-1.7-0.2-2.6c-1.4-1.2-6.1-1.2-7.7-0.3c-1,0.6-1.3,1.5-1,2.3c0.3,0.8,1.1,1.1,2.2,0.6 c2.1-0.8,4.3-1.3,6.5-0.1" style="fill: none; stroke: rgb(14, 14, 152);"/>
    <g>
      <path stroke-width="2.8346" stroke-linecap="round" stroke-linejoin="round" stroke-miterlimit="10" d=" M438.5,382.5c0.7-2.7,0.1-5.5,0-8.2c-0.6-24.1-0.7-48.2-0.5-72.2c0-3.7-1.3-6.3-3.8-8.5c-7.2-6.5-15.4-11.3-25-13 c-12.9-2.3-25.1,0.4-36.4,7.1c-3.9,2.3-7.5,5.1-10.9,8.2c-3.1,2.8-4.1,6-4.3,10c-0.8,22.6-0.4,45.1-0.5,67.7c0,3.5,0.2,7,0.3,10.5" style="fill: none; stroke: rgb(14, 14, 152);"/>
      <path stroke-width="2.8346" stroke-linecap="round" stroke-linejoin="round" stroke-miterlimit="10" d=" M429.7,381.4c-0.5-25.6-0.2-51.2-0.2-76.8c0-2-0.7-3.5-2-4.8c-3.6-3.8-8.2-5.9-13.1-7.3c-5.3-1.5-10.7-2.5-16.2-2.3 c-7.4,0.3-14.5,2.3-21,5.7c-3.3,1.7-6.4,3.8-9.5,5.8c-2,1.3-2.5,2.7-2.5,4.7c0,22.6-0.1,45.1,0.1,67.7c0,3.5,0.2,7,0.2,10.5" style="fill: none; stroke: rgb(14, 14, 152);"/>
      <path stroke-width="2.8346" stroke-linecap="round" stroke-linejoin="round" stroke-miterlimit="10" d=" M394.5,291.2c0.1,11.1-0.1,22.2,0.4,33.3c0.4,10.3,0.3,20.7,0.5,31c0.2,8.9,0.5,17.8,0.8,26.7" style="fill: none; stroke: rgb(14, 14, 152);"/>
    </g>
    <g>
      <path stroke-width="2.8346" stroke-linecap="round" stroke-linejoin="round" stroke-miterlimit="10" d=" M389.9,267c-2.4,1.4-2.9,2.5-1.7,4.3c1.2,1.6,4.5,1.9,6.3,0.6c2.8-2.3,2-6.9-1.4-8.6c-3.7-1.8-9.1,0.2-11.7,3.1 c-3.1,3.4-5,7.6-7.8,11.2c-2.9,3.7-6.7,5.6-10.9,7c-3.5,1.1-8.5-1.9-9-5.4c-0.7-4.3,2.1-7.2,5.6-7.7c2.1-0.3,3.5,0.3,4.6,2.3 c1.1,2,0.5,3.8-0.7,5.1c-1.3,1.4-3.1,1-4.5-0.2c0-1.4,0.9-1.6,1.7-2" style="fill: none; stroke: rgb(14, 14, 152);"/>
      <path stroke-width="2.8346" stroke-linecap="round" stroke-linejoin="round" stroke-miterlimit="10" d=" M434.3,273.9c0.2,0.5,0.5,1,0.9,1.7c-0.7,1.3-1.5,2.4-3.4,1.2c-1.9-1.2-2.5-2.7-1.7-4.6c1.2-2.8,5.5-4,8.5-2.6 c2.9,1.5,5.1,5.1,4.6,7.7c-0.7,3.1-3.7,5.5-7.4,5.7c-8,0.3-11.1-2.4-13.9-8.5c-1.5-3.3-3-6.5-5.1-9.4c-2.8-3.9-10.4-5.4-14.8-1.1 c-1.4,1.4-1.3,2.9-0.8,4.6c0.5,1.5,1.5,2.6,3.1,2.8c1.5,0.2,2.6-0.6,3.1-2c0.3-0.8-0.1-1.7-1.1-2c-0.6-0.2-1,0.2-1.1,0.8" style="fill: none; stroke: rgb(14, 14, 152);"/>
    </g>
    <g>
      <path stroke-width="2.8346" stroke-linecap="round" stroke-linejoin="round" stroke-miterlimit="10" d=" M432.6,223c-0.2-10.3-0.2-20.7-0.6-31c-0.4-7.5-0.3-15.1-1.9-22.5c-1.4-6.2-2.5-12.5-7.1-17.3c-5.1-5.3-11.6-7.9-18.8-8.8 c-7.5-0.9-14.9,0.6-21.8,3.2c-5.9,2.3-10.8,6.3-14,12.1c-3.3,6.2-5.1,12.7-6,19.6c-0.9,6.3-0.2,12.5-0.4,18.8c0,1,0.2,2.1,1.1,2.8" style="fill: none; stroke: rgb(14, 14, 152);"/>
      <path stroke-width="2.8346" stroke-linecap="round" stroke-linejoin="round" stroke-miterlimit="10" d=" M421.8,223.5c3.3,0.8,6.6-0.2,10,0c3.6,0.2,7.2,0,10.8,0c1.5,7.6,1.7,15.3,1.9,23c0.1,3.5-2.7,5.9-4.8,8.5c-0.3,0.3-1.3,0-1.9,0 c-8.5,0.1-17.1-0.1-25.6,0.3c-17.3,0.8-34.7,1.1-52,1.1c-6.1,0-8.2-1.9-9.7-8c-0.9-3.5-0.5-7-0.7-10.5c-0.3-4.1-0.8-8.3-0.3-12.5 c1.7-0.5,3.4-0.6,5-0.6c6.3-0.1,12.5-0.2,18.8-0.3c0.7,0,1.5,0.1,2-0.6" style="fill: none; stroke: rgb(14, 14, 152);"/>
      <path stroke-width="2.8346" stroke-linecap="round" stroke-linejoin="round" stroke-miterlimit="10" d=" M442.9,249.7c-3.1-0.6-6.2-0.4-9.2-0.2c-4.2,0.3-8.3,0.1-12.5,0.2c-20.9,0.4-41.9,0.8-62.8,0.6c-2.3,0-4.5,0.4-6.8,0.5" style="fill: none; stroke: rgb(14, 14, 152);"/>
      <path stroke-width="2.8346" stroke-linecap="round" stroke-linejoin="round" stroke-miterlimit="10" d=" M363.5,224.7c-0.2-4.8,0.1-9.7-0.1-14.5c-0.1-1.2-0.5-2-1-2.8c-1.8-2.7-0.6-6,1.4-7.4c5.5-3.9,6.8-9.5,5.3-15.6 c-1.9-8.3-0.3-15.8,5.5-21.8c3.9-4.1,9.2-5.9,15-6.8c3.9-0.6,7.6-0.2,11.4,0.4c8.1,1.3,15.8,7.1,17.5,16.2c1.5,8,0.4,15.6-0.5,23.3 c-0.6,5.2,0,10,3.4,14.2c0.8,1,0.8,1.9-0.2,3.2c-1.7,2.1-3,4.4-3.7,7c-10.6,1.8-21.2,1.2-31.9,0.9c-0.3,0-0.8-0.3-1.1-0.2 c-3.5,0.9-6.3,0.1-7.8-3.4" style="fill: none; stroke: rgb(14, 14, 152);"/>
      <path stroke-width="2.8346" stroke-linecap="round" stroke-linejoin="round" stroke-miterlimit="10" d=" M417.8,203.3c-1.3,0.9-2.7,0.8-4,0c-6.4-3.8-13.5-5.8-20.8-7c-7.9-1.3-15.8-1.6-23.6,1c-0.7,0.2-1.5,0-2.3,0" style="fill: none; stroke: rgb(14, 14, 152);"/>
      <path stroke-width="2.8346" stroke-linecap="round" stroke-linejoin="round" stroke-miterlimit="10" d=" M414.6,213.6c1.1-1.6,1.1-2.7-0.8-4c-4-2.8-8.5-4.1-13.1-5.3c-1.6-0.4-3-1.8-4.8-0.9" style="fill: none; stroke: rgb(14, 14, 152);"/>
      <path stroke-width="2.8346" stroke-linecap="round" stroke-linejoin="round" stroke-miterlimit="10" d=" M383.4,201.9c-0.7,3.6,0.1,5.8,2.8,7.4c2.3,1.4,6.2,1.1,8.3-0.6c1.7-1.4,1.6-3.3,1.1-5.1c-0.4-1.6-2-1.6-3.1-1.7 c-5.5-0.3-11-0.6-16.5-0.5c-2.4,0-4.9,0.3-6.8,2.2c-1.1,1.1-1.1,2-0.3,3.1" style="fill: none; stroke: rgb(14, 14, 152);"/>
      <path stroke-width="2.8346" stroke-linecap="round" stroke-linejoin="round" stroke-miterlimit="10" d=" M376,216.7c-1.2-1.7-2.9-2.5-4.8-3.2c-2.6-1-4.7-3-7.4-3.9" style="fill: none; stroke: rgb(14, 14, 152);"/>
      <path stroke-width="2.8346" stroke-linecap="round" stroke-linejoin="round" stroke-miterlimit="10" d=" M401.6,155.8c0.1-1.9-0.1-3.6-2-4.6c-2.8-1.5-5.1-0.1-5.7,3.4" style="fill: none; stroke: rgb(14, 14, 152);"/>
    </g>
    <g>
      <path stroke-width="2.8346" stroke-linecap="round" stroke-linejoin="round" stroke-miterlimit="10" d=" M532.4,264.2c-0.1,0.3-0.3,0.6-0.3,0.9c-0.1,10.8-0.2,21.6-0.3,32.4c0,4.4,0,8.7,0,13.4c9.7-0.3,18.8,0.4,27.9-0.5 c0.6-4.5,0.8-43.8,0.3-48.1c-8.8-0.5-17.6-0.5-26.4-0.1c-1.4,0.1-1.8,0.5-1.1,1.7" style="fill: none; stroke: rgb(14, 14, 152);"/>
      <path stroke-width="2.8346" stroke-linecap="round" stroke-linejoin="round" stroke-miterlimit="10" d=" M557.1,322.2c0,14.2,0,28.4,0,42.8c-7.5,0.8-14.7,0.2-22.2,0.5c0-14.3,0-28.2,0-42.1" style="fill: none; stroke: rgb(14, 14, 152);"/>
      <path stroke-width="2.8346" stroke-linecap="round" stroke-linejoin="round" stroke-miterlimit="10" d=" M557.7,268.7c-0.6,13,0.1,26-0.7,39.1c-3.3,0.5-6.7-0.3-10.1,0.4" style="fill: none; stroke: rgb(14, 14, 152);"/>
      <path stroke-width="2.8346" stroke-linecap="round" stroke-linejoin="round" stroke-miterlimit="10" d=" M536.9,264.8c6.7,0,13.5,0,20.2,0" style="fill: none; stroke: rgb(14, 14, 152);"/>
      <path stroke-width="2.8346" stroke-linecap="round" stroke-linejoin="round" stroke-miterlimit="10" d=" M534.9,276.7c0,6.6,0,13.3,0,19.9" style="fill: none; stroke: rgb(14, 14, 152);"/>
      <path stroke-width="2.8346" stroke-linecap="round" stroke-linejoin="round" stroke-miterlimit="10" d=" M549.2,322.2c-4.5,0-9.1,0-13.6,0" style="fill: none; stroke: rgb(14, 14, 152);"/>
      <path stroke-width="2.8346" stroke-linecap="round" stroke-linejoin="round" stroke-miterlimit="10" d=" M544.3,308.3c-2.9,0-5.9,0-8.8,0" style="fill: none; stroke: rgb(14, 14, 152);"/>
      <path stroke-width="2.8346" stroke-linecap="round" stroke-linejoin="round" stroke-miterlimit="10" d=" M533.8,319.4c-1.2,0.1-1.7,0.7-1.7,2c0,14.1-0.2,28.2-0.2,42.4c0,1.3,0.3,2.7,0.4,4.3c4.9,0,9.8,0,14.6,0c3.5,0,7-0.1,10.5,0 c1.9,0,2.6-0.7,2.6-2.6c0-10,0.2-19.9,0.2-29.9c0-5.3,0-10.6,0-16.2c-9.1,0-17.6,0-26.2,0" style="fill: none; stroke: rgb(14, 14, 152);"/>
    </g>
    <g>
      <path stroke-width="2.8346" stroke-linecap="round" stroke-linejoin="round" stroke-miterlimit="10" d=" M520.7,363.2c0-13.6,0-27.1,0-40.8c-7.3,0-14.6,0-22.2,0c0,5.7,0,11.6,0,17.5" style="fill: none; stroke: rgb(14, 14, 152);"/>
      <path stroke-width="2.8346" stroke-linecap="round" stroke-linejoin="round" stroke-miterlimit="10" d=" M497.4,261.9c-1.3,0.7-1.7,1.6-1.7,3.1c0,14.1-0.2,28.2-0.2,42.4c0,1,0.2,2.1,0.3,3.3c9.1,0,18.2,0,27.4,0c0.6-5.1,0.5-10,0.4-14.9 c-0.1-3.1,0.8-6.3,0-9.4" style="fill: none; stroke: rgb(14, 14, 152);"/>
      <path stroke-width="2.8346" stroke-linecap="round" stroke-linejoin="round" stroke-miterlimit="10" d=" M500.2,261.9c2.8,0.6,5.7,0.2,8.5,0.3c4.8,0.2,9.7-0.3,15.1,0.4c0,7.3,0,14.7,0,22.1" style="fill: none; stroke: rgb(14, 14, 152);"/>
      <path stroke-width="2.8346" stroke-linecap="round" stroke-linejoin="round" stroke-miterlimit="10" d=" M520.7,283.5c0,8.1,0,16.1,0,24.5c-6.8-0.1-13.7,0.1-20.5,0.5" style="fill: none; stroke: rgb(14, 14, 152);"/>
      <path stroke-width="2.8346" stroke-linecap="round" stroke-linejoin="round" stroke-miterlimit="10" d=" M498.5,265.3c0,14.2,0,28.4,0,42.7" style="fill: none; stroke: rgb(14, 14, 152);"/>
      <path stroke-width="2.8346" stroke-linecap="round" stroke-linejoin="round" stroke-miterlimit="10" d=" M520.7,282.4c0-5.8,0-11.6,0-17.6c-7,0-14,0-21,0" style="fill: none; stroke: rgb(14, 14, 152);"/>
      <path stroke-width="2.8346" stroke-linecap="round" stroke-linejoin="round" stroke-miterlimit="10" d=" M520.1,365.1c-7.2,0.6-14.4,0.2-21.6,0.3" style="fill: none; stroke: rgb(14, 14, 152);"/>
      <path stroke-width="2.8346" stroke-linecap="round" stroke-linejoin="round" stroke-miterlimit="10" d=" M498,342.7c0,5.1,0,10.2,0,15.4" style="fill: none; stroke: rgb(14, 14, 152);"/>
      <path stroke-width="2.8346" stroke-linecap="round" stroke-linejoin="round" stroke-miterlimit="10" d=" M521.3,319.4c-2.1,0.6-4.2,0.2-6.3,0.3c-6.4,0.1-12.7,0-19.3,0c0,16,0,32,0,48.2c9.1,0,18.2,0,27.4,0c0.1-0.4,0.2-0.7,0.2-1 c0.1-15,0.2-30,0.3-44.9c0-1.7-0.5-2.4-2-2.6" style="fill: none; stroke: rgb(14, 14, 152);"/>
    </g>
    <g>
      <path stroke-width="2.8346" stroke-linecap="round" stroke-linejoin="round" stroke-miterlimit="10" d=" M486.6,273.3c0-3.6,0-7.2,0-11.1c-6,0-11.7,0-17.3,0c-2.6,0-5.1,0.1-7.7,0c-2.4-0.1-3.1-0.6-3.1,3.1c0,11,0,22,0,33 c0,4.1-0.3,8.2,0.3,12.4c9.1,0,18.2,0,27.6,0c0.2-12.2,0.3-24.2,0.5-36.3" style="fill: none; stroke: rgb(14, 14, 152);"/>
      <path stroke-width="2.8346" stroke-linecap="round" stroke-linejoin="round" stroke-miterlimit="10" d=" M483.2,322.2c1.1,0.2,0.5,1.2,0.5,1.7c0,10,0.1,19.9,0,29.9c0,3.8-0.8,7.6-0.5,11.7c-7.3,0-14.5,0-21.7,0" style="fill: none; stroke: rgb(14, 14, 152);"/>
      <path stroke-width="2.8346" stroke-linecap="round" stroke-linejoin="round" stroke-miterlimit="10" d=" M483.7,277.3c0,9.2,0,18.4,0,27.6c0,3.7-0.8,3.1-3.1,3.2c-3.6,0-7.2,0.4-10.8,0.5c-2.7,0.1-5.3,0.2-8.2-0.5c0-2.7,0-5.6,0-8.6" style="fill: none; stroke: rgb(14, 14, 152);"/>
      <path stroke-width="2.8346" stroke-linecap="round" stroke-linejoin="round" stroke-miterlimit="10" d=" M461.6,265.3c0,11,0,22,0,33" style="fill: none; stroke: rgb(14, 14, 152);"/>
      <path stroke-width="2.8346" stroke-linecap="round" stroke-linejoin="round" stroke-miterlimit="10" d=" M483.7,276.1c0-3.7,0-7.4,0-11.4c-6.8,0-13.6,0-20.5,0" style="fill: none; stroke: rgb(14, 14, 152);"/>
      <path stroke-width="2.8346" stroke-linecap="round" stroke-linejoin="round" stroke-miterlimit="10" d=" M477.5,322.2c-5.2,0-10.4,0-15.9,0c0,3,0,6.1,0,9.1" style="fill: none; stroke: rgb(14, 14, 152);"/>
      <path stroke-width="2.8346" stroke-linecap="round" stroke-linejoin="round" stroke-miterlimit="10" d=" M461,337c0,6.3,0,12.5,0,18.8" style="fill: none; stroke: rgb(14, 14, 152);"/>
      <path stroke-width="2.8346" stroke-linecap="round" stroke-linejoin="round" stroke-miterlimit="10" d=" M462.1,319.4c-0.6,0.1-1.1,0.3-1.7,0.3c-1.5-0.1-2.1,0.5-2,2c0.1,1.1,0,2.3,0,3.4c0,13.3,0,26.5,0,39.8c0,1,0,1.9,0,3 c9.4,0,18.5,0,27.9,0c0-16.1,0-32,0-48.1c-0.7,0.2-1.2-0.2-2-0.2c-7.3,0-14.6,0.5-21.9-0.2" style="fill: none; stroke: rgb(14, 14, 152);"/>
    </g>
    <g>
      <path stroke-width="2.8346" stroke-linecap="round" stroke-linejoin="round" stroke-miterlimit="10" d=" M331.3,322.2c-7,0-14.1-0.3-21.2,1.2c0.5,1,0.9,1.8,0.8,2.7c-0.1,1.4,0,2.8,0,4.3c-0.4,9.3,0.8,18.6,0.6,27.9 c-0.1,2.4,0.7,4.9,0.4,7.7c3.3,0,6.5,0,9.7,0" style="fill: none; stroke: rgb(14, 14, 152);"/>
      <path stroke-width="2.8346" stroke-linecap="round" stroke-linejoin="round" stroke-miterlimit="10" d=" M332.5,322.2c0.6,11.8,1.2,23.7,1.7,35.5c0.1,2.3,0,4.5,0,6.8c-0.7,0.6-1.5,0.1-2.3,0.3" style="fill: none; stroke: rgb(14, 14, 152);"/>
      <path stroke-width="2.8346" stroke-linecap="round" stroke-linejoin="round" stroke-miterlimit="10" d=" M330.2,265.3c-2.7-1.4-5.5-0.3-8.2-0.2c-4.4,0.1-8.7,0.6-13.3,0.9c-0.5,10.9,0.9,21.9,0.5,32.9" style="fill: none; stroke: rgb(14, 14, 152);"/>
      <path stroke-width="2.8346" stroke-linecap="round" stroke-linejoin="round" stroke-miterlimit="10" d=" M330.8,268.2c0.4,12.7,0.8,25.4,1.1,38.1" style="fill: none; stroke: rgb(14, 14, 152);"/>
      <path stroke-width="2.8346" stroke-linecap="round" stroke-linejoin="round" stroke-miterlimit="10" d=" M331.9,307.4c-2.1,0.7-4.3,1.1-6.5,1.1c-2.6,0-5.1,0-7.7,0" style="fill: none; stroke: rgb(14, 14, 152);"/>
      <path stroke-width="2.8346" stroke-linecap="round" stroke-linejoin="round" stroke-miterlimit="10" d=" M328.5,319.4c-0.9,0.1-1.7,0.3-2.6,0.3c-5.2,0.1-10.4,0.2-15.6,0.3c-2,0-3,0.6-2.9,2.9c0.5,10.2,0.7,20.5,1,30.7 c0.2,5,0.3,10.1,0.9,15.4c9.1-0.4,18.3-0.8,27.8-1.2c-0.5-16-1-32-1.5-48.3c-2.3,0-4.6,0-6.9,0" style="fill: none; stroke: rgb(14, 14, 152);"/>
      <path stroke-width="2.8346" stroke-linecap="round" stroke-linejoin="round" stroke-miterlimit="10" d=" M330.8,261.9c-5,0.3-10,0.6-15.1,0.8c-3.3,0.1-6.7-0.1-10.2,0.6c0.2,16,0.9,32,1.5,48.4c9.3-0.4,18.4-0.7,27.5-1.1 c0-4,0-8.1,0-12.1c0.2-11.6-0.7-23.1-1.1-34.7c-0.1-1.8-0.9-2-2.3-2" style="fill: none; stroke: rgb(14, 14, 152);"/>
    </g>
    <g>
      <path stroke-width="2.8346" stroke-linecap="round" stroke-linejoin="round" stroke-miterlimit="10" d=" M272.7,370c8.5,0,17.1-0.2,25.6-0.8c1.5-0.1,2-0.5,2-2c-0.3-11.2-0.4-22.4-1.1-33.6c-0.2-4.2,0-8.4-0.5-12.8c-4.7,0-9.2-0.1-13.8,0 c-4.6,0.2-9.1,0.6-14,0.9c0.4,15.7,0.8,31.4,1.2,47.1" style="fill: none; stroke: rgb(14, 14, 152);"/>
      <path stroke-width="2.8346" stroke-linecap="round" stroke-linejoin="round" stroke-miterlimit="10" d=" M296.1,326.2c0-0.9,0-1.7,0-2.8c-7.3-0.2-14.6,0.6-22.1,1c0.4,12.8,0.7,25.5,1.1,38.2" style="fill: none; stroke: rgb(14, 14, 152);"/>
      <path stroke-width="2.8346" stroke-linecap="round" stroke-linejoin="round" stroke-miterlimit="10" d=" M296.6,330.2c0.2,10.3,0.4,20.7,0.6,31c0,0.1,0,0.2,0,0.3c-0.1,1.5,1.6,3.1,0,4.5c-1.4,1.3-3.3,0.6-4.8,0.8 c-4.4,0.4-8.9,0.3-13.4,0.4" style="fill: none; stroke: rgb(14, 14, 152);"/>
      <path stroke-width="2.8346" stroke-linecap="round" stroke-linejoin="round" stroke-miterlimit="10" d=" M294.4,269.9c0,2.4-0.2,4.8,0,7.1c1.1,9.6-0.1,19.2,1,28.7c0.1,1.1,0.6,2.4-0.5,3.4" style="fill: none; stroke: rgb(14, 14, 152);"/>
      <path stroke-width="2.8346" stroke-linecap="round" stroke-linejoin="round" stroke-miterlimit="10" d=" M272.7,294.3c0.1,5.2-0.4,10.5,0.8,15.8c6.6,0.6,13.5-0.4,20.3-0.4" style="fill: none; stroke: rgb(14, 14, 152);"/>
      <path stroke-width="2.8346" stroke-linecap="round" stroke-linejoin="round" stroke-miterlimit="10" d=" M280.7,267c-2.9,0.2-5.9-0.4-9.2,0.7c0.5,5.5,0.8,11.2,0.6,16.9" style="fill: none; stroke: rgb(14, 14, 152);"/>
      <path stroke-width="2.8346" stroke-linecap="round" stroke-linejoin="round" stroke-miterlimit="10" d=" M285.8,263.6c-5.6,0.3-11.2,0.6-17.2,1c0.6,16,0.7,32.1,1.7,48.2c9.4,0.2,18.4,0,27.7-1c0-16-0.7-31.9-1.5-48.1c-3.4,0-7,0-10.5,0" style="fill: none; stroke: rgb(14, 14, 152);"/>
    </g>
    <g>
      <path stroke-width="2.8346" stroke-linecap="round" stroke-linejoin="round" stroke-miterlimit="10" d=" M259.1,313.4c1.5,0.7,2.3,0.3,2.3-1.4c-0.2-6.7-0.2-13.5-0.6-20.2c-0.2-2.9,0-5.7-0.2-8.5c-0.3-6-0.6-12-1-18.2 c-4.7,0-9.4-0.5-13.8,0.1c-4.6,0.7-9.2-0.3-14,1.1c0.3,15.7,0.8,31.7,1.7,47.9c6,0.5,11.8,0.1,17.7-0.3c2.6-0.1,5.2,0.4,7.7-0.5" style="fill: none; stroke: rgb(14, 14, 152);"/>
      <path stroke-width="2.8346" stroke-linecap="round" stroke-linejoin="round" stroke-miterlimit="10" d=" M235.2,274.4c-0.2,12.4,0.5,24.8,1.3,37.6c6.9-0.4,13.9-0.8,20.9-1.2" style="fill: none; stroke: rgb(14, 14, 152);"/>
      <path stroke-width="2.8346" stroke-linecap="round" stroke-linejoin="round" stroke-miterlimit="10" d=" M259.7,331.9c-0.1,11.9,0.6,23.7,1,35.6c-3.8,0.9-7.5,0.8-11.2,0.8" style="fill: none; stroke: rgb(14, 14, 152);"/>
      <path stroke-width="2.8346" stroke-linecap="round" stroke-linejoin="round" stroke-miterlimit="10" d=" M242.6,325.6c-1.8,0-3.6,0-5.7,0c0.3,12.9,1.2,25.8,1.2,38.7" style="fill: none; stroke: rgb(14, 14, 152);"/>
      <path stroke-width="2.8346" stroke-linecap="round" stroke-linejoin="round" stroke-miterlimit="10" d=" M257.4,270.4c-0.4,9.5,0.8,18.9,0.6,28.4" style="fill: none; stroke: rgb(14, 14, 152);"/>
      <path stroke-width="2.8346" stroke-linecap="round" stroke-linejoin="round" stroke-miterlimit="10" d=" M256.8,268.2c-1.5-1.2-3.3-0.7-4.8-0.5c-4.1,0.7-8.2,0.4-12.2,0.5" style="fill: none; stroke: rgb(14, 14, 152);"/>
      <path stroke-width="2.8346" stroke-linecap="round" stroke-linejoin="round" stroke-miterlimit="10" d=" M259.1,326.2c0.4-2.1-1.2-1.9-2.3-1.7c-4.3,1-8.7,0.3-13.1,0.5" style="fill: none; stroke: rgb(14, 14, 152);"/>
      <path stroke-width="2.8346" stroke-linecap="round" stroke-linejoin="round" stroke-miterlimit="10" d=" M258,300c0.2,3.4,0.4,6.8,0.6,10.2" style="fill: none; stroke: rgb(14, 14, 152);"/>
      <path stroke-width="2.8346" stroke-linecap="round" stroke-linejoin="round" stroke-miterlimit="10" d=" M250.6,322.2c-4,0.2-8,0.4-11.9,0.6c-1.4,0.1-2.8,0.2-4.5,0.4c0,16,0.8,32.2,1.5,48.2c9.3,0.4,18.4-0.7,27.9-0.8 c-0.5-16.2-1-32.1-1.6-48.3c-3.7,0-7.4,0-11.1,0" style="fill: none; stroke: rgb(14, 14, 152);"/>
    </g>
    <g>
      <path stroke-width="2.8346" stroke-linecap="round" stroke-linejoin="round" stroke-miterlimit="10" d=" M216.7,327c-6.7-2.2-13.6-0.5-17,4.3c-1.5,2-2.4,4.3-2.3,6.8c0.1,2.2-0.6,4.4,0.5,6.6c0.4,0.8-0.6,1.7-0.7,2.5 c-0.3,2.2-0.3,4.4-0.3,6.5" style="fill: none; stroke: rgb(14, 14, 152);"/>
      <path stroke-width="2.8346" stroke-linecap="round" stroke-linejoin="round" stroke-miterlimit="10" d=" M170.9,399c-4.2,0.1-8.2,0.4-11.1,4.2c-1.9,2.5-1.8,5.2-1.7,8" style="fill: none; stroke: rgb(14, 14, 152);"/>
      <path stroke-width="2.8346" stroke-linecap="round" stroke-linejoin="round" stroke-miterlimit="10" d=" M194.3,369.7c-9.5-3.3-17.4,4.8-19.5,11.1c-0.9,2.7,0.4,5.4,1.6,7.9c0.2,0.5,0.6,1,0.8,1.4" style="fill: none; stroke: rgb(14, 14, 152);"/>
      <path stroke-width="2.8346" stroke-linecap="round" stroke-linejoin="round" stroke-miterlimit="10" d=" M199.7,355.5c-3.3-1.9-7.8-1.7-9.9,0.6c-3,3.2-4.3,6.6-2.3,11.1c0.2,0.5,0.4,0.9,0.6,1.4" style="fill: none; stroke: rgb(14, 14, 152);"/>
      <path stroke-width="2.8346" stroke-linecap="round" stroke-linejoin="round" stroke-miterlimit="10" d=" M256.2,393.3c0.1-3-0.6-5.7-2.9-7.7c-3-2.6-6.2-2.2-9.5-0.2c-1.2-1-2.4-1.9-4.1-1.6" style="fill: none; stroke: rgb(14, 14, 152);"/>
      <path stroke-width="2.8346" stroke-linecap="round" stroke-linejoin="round" stroke-miterlimit="10" d=" M202.2,393.6c0.1-0.5,0.2-0.9,0.3-1.4c0.1-1.4-0.2-2.9-1.7-3.4c-1.5-0.5-2.9,0.2-3.3,1.7c-0.3,0.8-0.4,1.4-1.2,1.7 c-0.6-0.6-1.3-1.1-1.1-2c0.2-1.6-0.8-2.1-2-2c-1.3,0.1-2.6,0.5-2.6,2.2c0,1.7-0.3,3.4,1.1,4.9c-1.2,0.4-2.2,0.6-3.1,1.1 c-1.1,0.7-2.3,1.5-2,3.1c0.3,1.8,1.8,2.4,3.1,2.5c1.9,0.1,3.5,0.1,4.3,2.3c0.5,1.2,2.2,1,3.3,0.8c1.4-0.2,1.4-1.8,1.9-2.8 c0.3-0.6,0.1-1.5,0.1-2.3c2.1,0.7,3.4-0.6,4.2-2.2c0.5-1,0.7-2.3-0.2-3.4c-1-1.2-1.9-0.3-2.9,0" style="fill: none; stroke: rgb(14, 14, 152);"/>
      <path stroke-width="2.8346" stroke-linecap="round" stroke-linejoin="round" stroke-miterlimit="10" d=" M159.3,412.3c-4.4-3-12.4-0.4-12.5,6c0,1.3-0.7,1.7-1.7,2.3c-1.1,0.6-2.5,1.2-2.6,2.8" style="fill: none; stroke: rgb(14, 14, 152);"/>
      <path stroke-width="2.8346" stroke-linecap="round" stroke-linejoin="round" stroke-miterlimit="10" d=" M181.2,390.7c-4.9-0.5-7.3,0.8-9.4,4.8c-1.2,2.4-0.8,3.5,2,4.5" style="fill: none; stroke: rgb(14, 14, 152);"/>
      <path stroke-width="2.8346" stroke-linecap="round" stroke-linejoin="round" stroke-miterlimit="10" d=" M212.2,375.7c-1.6-2.5-3.8-3.1-6.5-2.3" style="fill: none; stroke: rgb(14, 14, 152);"/>
      <path stroke-width="2.8346" stroke-linecap="round" stroke-linejoin="round" stroke-miterlimit="10" d=" M219,373.4c-2.4,0.8-5,1.2-7.1,2.8" style="fill: none; stroke: rgb(14, 14, 152);"/>
      <path stroke-width="2.8346" stroke-linecap="round" stroke-linejoin="round" stroke-miterlimit="10" d=" M204.5,345.5c-2.1-0.9-4.2,0.6-6.3-0.3" style="fill: none; stroke: rgb(14, 14, 152);"/>
    </g>
    <g>
      <path stroke-width="2.8346" stroke-linecap="round" stroke-linejoin="round" stroke-miterlimit="10" d=" M335,205c1,7,0.5,14,0.6,21c0,3.6,0.8,7.2,0.6,10.8c-0.2,4.2,0,8.3,0,12.3c-12.9,0.6-25.5,1.3-38.1,1.9c-7.6,0.4-15.2,0.5-22.7,0.9 c-10.2,0.5-20.5,1.3-30.7,1.6c-5.8,0.1-11.6,0.6-17.3,0.7c-1,0-2.1-0.5-2.8,0.5" style="fill: none; stroke: rgb(14, 14, 152);"/>
      <path stroke-width="2.8346" stroke-linecap="round" stroke-linejoin="round" stroke-miterlimit="10" d=" M372.3,123.1c-4.4,4.6-8.7,9.3-13.1,13.9c-7.8,8.3-15.5,16.5-23.3,24.7c-1.5,1.6-2.1,3.1-1.8,5.4c0.4,3.2,0,6.4,0.6,9.7 c0.3,1.4-0.5,2.3-2.2,2.3c-5-0.1-9.9-0.4-14.7-1.2c-4,3.5-5.6,9.4-3.4,13.9c0.6,1.4,0.4,3.2,2.2,4.1c1,0.5-0.1,1.3-0.2,1.9 c-2.2,9.7-5.6,19.1-8,28.7c-0.2,0.6-0.2,1.3-0.4,2.3c9.1-0.3,18.1-0.6,27.1-1.7" style="fill: none; stroke: rgb(14, 14, 152);"/>
      <path stroke-width="2.8346" stroke-linecap="round" stroke-linejoin="round" stroke-miterlimit="10" d=" M252.8,180.6c-4.2-0.4-8.3-1-12.5-1.3c-2.7-0.1-5.5-0.3-8.3-0.4c-1.4,0-2.6,0.3-3.4,1.7c-2.5,4.1-3.3,11.2,0.3,15.4 c0.7,0.8,1.5,1.2,2.8,1.3c4.8,0.4,9.5-0.5,14.2-0.9c3.1-0.3,6.1-0.4,9.1-1.2c1.7-0.4,2.3,1.5,4,1.5c8.1,0.1,16-0.8,23.9-2.6" style="fill: none; stroke: rgb(14, 14, 152);"/>
      <path stroke-width="2.8346" stroke-linecap="round" stroke-linejoin="round" stroke-miterlimit="10" d=" M335.3,240.9c-6,0.5-11.9,0.3-17.9,0.8c-4.2,0.3-8.6-0.4-12.8,0c-5.8,0.5-11.6,0.3-17.4,0.7c-6,0.4-12,0-17.9,0.6 c-6.5,0.7-13-0.3-19.4,1c-0.4,0.1-0.8,0-1.1,0c-8.4,0.2-16.9,0.1-25.3,0.7c-5.6,0.4-11.2,0.4-16.8,0.5c-1,0-2,0.3-2.8-0.6" style="fill: none; stroke: rgb(14, 14, 152);"/>
      <path stroke-width="2.8346" stroke-linecap="round" stroke-linejoin="round" stroke-miterlimit="10" d=" M234.6,244c0.6-2.2,1.7-4.2,2.8-6.3c0.5-1-0.2-2-1.4-1.6c-3.1,1.1-6.3,0.3-9.4,0.5c-4.6,0.2-9.3-0.2-13.9,0.3 c-1.2,0.1-2.5,0.3-3.7-0.3" style="fill: none; stroke: rgb(14, 14, 152);"/>
      <path stroke-width="2.8346" stroke-linecap="round" stroke-linejoin="round" stroke-miterlimit="10" d=" M334.5,179.4c1.2,2.8,0.5,5.7,0.5,8.5c0.1,6.6,0.1,6.9-6,8.1c-3.9,0.8-7.9,2-11.9,0.7" style="fill: none; stroke: rgb(14, 14, 152);"/>
      <path stroke-width="2.8346" stroke-linecap="round" stroke-linejoin="round" stroke-miterlimit="10" d=" M314.3,180.9c-4.4-0.5-8.7-0.8-13.1-1.5c-4.8-0.8-9.7-0.7-14.5-0.8c-1.7,0-3.1,0.2-3.7,2c-1.2,4-2.6,8.1-0.3,12.2 c1.6,2.8,3.7,4.5,7.4,4.4c6.9-0.3,13.9-0.2,20.8-0.9c1.5-0.2,3-0.4,4.4-1.1" style="fill: none; stroke: rgb(14, 14, 152);"/>
      <path stroke-width="2.8346" stroke-linecap="round" stroke-linejoin="round" stroke-miterlimit="10" d=" M310.6,216.4c-3.1-0.6-6.3-0.1-9.4,0c-7.1,0.1-14.2,0-21.4,0c0.9-3.1,2.3-6.2,3.8-9.4c1.4-3.1,3-6,3.7-9.4" style="fill: none; stroke: rgb(14, 14, 152);"/>
      <path stroke-width="2.8346" stroke-linecap="round" stroke-linejoin="round" stroke-miterlimit="10" d=" M282.4,180.9c-6.4-0.8-12.8-2.5-19.3-2.6c-1.9,0-3.8-0.8-5.7-0.2c-2.1,0.6-3.4,1.4-4.1,3.9c-1.3,4.8-0.2,8.8,2.1,12.8" style="fill: none; stroke: rgb(14, 14, 152);"/>
      <path stroke-width="2.8346" stroke-linecap="round" stroke-linejoin="round" stroke-miterlimit="10" d=" M223.8,211c0.8,0.8,1.9,0.6,2.8,0.6c7.4-0.2,14.8,0.5,22.2-0.5c0.5-0.1,0.9,0.2,1.4,0.3" style="fill: none; stroke: rgb(14, 14, 152);"/>
      <path stroke-width="2.8346" stroke-linecap="round" stroke-linejoin="round" stroke-miterlimit="10" d=" M334.7,204.5c-6.4,0.6-12.9,0.2-19.3,0.3" style="fill: none; stroke: rgb(14, 14, 152);"/>
      <path stroke-width="2.8346" stroke-linecap="round" stroke-linejoin="round" stroke-miterlimit="10" d=" M273.3,228.1c-5.8,0.3-11.6,0.8-17.3,0.8c-4.4,0-8.7,0.9-13.1,0.1" style="fill: none; stroke: rgb(14, 14, 152);"/>
      <path stroke-width="2.8346" stroke-linecap="round" stroke-linejoin="round" stroke-miterlimit="10" d=" M258,196.8c-3.2,6.6-6.3,13.4-9.7,19.9c-3.4,6.5-6.2,13.2-10.2,19.4" style="fill: none; stroke: rgb(14, 14, 152);"/>
      <path stroke-width="2.8346" stroke-linecap="round" stroke-linejoin="round" stroke-miterlimit="10" d=" M211.9,256.5c0,5,1,6.2,6,6.2c2.1,0,3.3,1.6,5.1,2.1" style="fill: none; stroke: rgb(14, 14, 152);"/>
      <path stroke-width="2.8346" stroke-linecap="round" stroke-linejoin="round" stroke-miterlimit="10" d=" M279.3,217.6c-4.5,7.9-7.7,16.4-11.4,24.7" style="fill: none; stroke: rgb(14, 14, 152);"/>
      <path stroke-width="2.8346" stroke-linecap="round" stroke-linejoin="round" stroke-miterlimit="10" d=" M307.7,229.5c-1.6,3.8-2.4,7.7-3.4,11.7" style="fill: none; stroke: rgb(14, 14, 152);"/>
      <path stroke-width="2.8346" stroke-linecap="round" stroke-linejoin="round" stroke-miterlimit="10" d=" M335,195.4c0.5,2.8,0.5,5.7,0,8.5" style="fill: none; stroke: rgb(14, 14, 152);"/>
    </g>
    <g>
      <path stroke-width="2.8346" stroke-linecap="round" stroke-linejoin="round" stroke-miterlimit="10" d=" M558.5,194.5c3.3-3.8,4.9-8,3.4-13.1c-1.7-5.8-4.1-7.5-10-6.8c-4,0.4-7.9,0.8-11.9,1c-3.1,0.1-6.3,1-9.4,1.6" style="fill: none; stroke: rgb(14, 14, 152);"/>
      <path stroke-width="2.8346" stroke-linecap="round" stroke-linejoin="round" stroke-miterlimit="10" d=" M526.4,237.7c-4.1,0.2-8.2,0.5-12.2,0.5c-8.5,0.1-17.1-0.1-25.6,0.1c-9.6,0.2-19.1,0.6-28.7,0.5c-1.7,0-3.4-0.2-5.1-0.3" style="fill: none; stroke: rgb(14, 14, 152);"/>
      <path stroke-width="2.8346" stroke-linecap="round" stroke-linejoin="round" stroke-miterlimit="10" d=" M473.8,193.4c3,6,6,12,7.8,18.6c-9.2,0.3-18.3,0.7-27.4,1" style="fill: none; stroke: rgb(14, 14, 152);"/>
      <path stroke-width="2.8346" stroke-linecap="round" stroke-linejoin="round" stroke-miterlimit="10" d=" M519.9,225.5c-1.4,0.5-2.8,0.6-4.3,0.6c-7.3,0-14.6,0-21.9,0c-1.5,0-3,0.4-4.6,0.5" style="fill: none; stroke: rgb(14, 14, 152);"/>
      <path stroke-width="2.8346" stroke-linecap="round" stroke-linejoin="round" stroke-miterlimit="10" d=" M500.2,191.4c7.3,1,14.6,1.9,21.9,2.3c0.3,0,0.6,0,0.9,0c2.1,0.1,4.5,1.4,6.2-0.9c1.8-2.2,2.2-5,2.5-7.7c0.3-2.6-0.3-5.3-1.4-7.6 c-0.9-1.9-2.5-3-4.8-2.9c-4.6,0.3-9.1,0.8-13.7,1.7c-3.6,0.7-7.3,0.6-10.8,2" style="fill: none; stroke: rgb(14, 14, 152);"/>
      <path stroke-width="2.8346" stroke-linecap="round" stroke-linejoin="round" stroke-miterlimit="10" d=" M507.9,202.2c-1.2,0.5-2.5,0.3-3.7,0.3c-7.3,0-14.6,0-21.9,0c-1,0-2.1,0.2-3.1,0.3" style="fill: none; stroke: rgb(14, 14, 152);"/>
      <path stroke-width="2.8346" stroke-linecap="round" stroke-linejoin="round" stroke-miterlimit="10" d=" M582.1,236.6c-6.1-11.1-12.1-22.2-18.2-33.2c-0.6-1-1.2-2.1-1.7-3.1c-2.1-4.6-5.6-6.5-10.8-6.7c-6.9-0.2-13.8-1.4-20.8-2.1" style="fill: none; stroke: rgb(14, 14, 152);"/>
      <path stroke-width="2.8346" stroke-linecap="round" stroke-linejoin="round" stroke-miterlimit="10" d=" M575.3,225.8c-1.6,0.7-3.2,0-4.8,0c-6.5,0-13.1,0-19.6,0c-0.6,0-1.1,0.2-1.7,0.3" style="fill: none; stroke: rgb(14, 14, 152);"/>
      <path stroke-width="2.8346" stroke-linecap="round" stroke-linejoin="round" stroke-miterlimit="10" d=" M474.9,191.7c1.9,0.8,4,0.4,6,0.4c4.7,0.1,9.2,1.5,13.9,1.6c3.2,0.1,3.9-0.1,5.1-2.9c1.7-4,1.4-8.1,0.8-12.2 c-0.4-2.6-3.7-4.2-7.6-3.7c-4.8,0.6-9.5,1.6-14.2,2.5c-1.3,0.3-2.5,0.9-3.7,1.4" style="fill: none; stroke: rgb(14, 14, 152);"/>
      <path stroke-width="2.8346" stroke-linecap="round" stroke-linejoin="round" stroke-miterlimit="10" d=" M562.8,202.5c-8-0.1-15.9,0.1-23.9,0.6c-0.5,0-0.9,0.2-1.4,0.3" style="fill: none; stroke: rgb(14, 14, 152);"/>
      <path stroke-width="2.8346" stroke-linecap="round" stroke-linejoin="round" stroke-miterlimit="10" d=" M539.8,212.2c-7.8,0.4-15.6,0.1-23.3,1.1c-0.4,0-0.8,0.2-1.1,0.3" style="fill: none; stroke: rgb(14, 14, 152);"/>
      <path stroke-width="2.8346" stroke-linecap="round" stroke-linejoin="round" stroke-miterlimit="10" d=" M453.9,192.5c5.4,0.4,10.8,0.7,16.2,1.2c2.8,0.2,3.8-0.6,4.6-3.4c0.8-2.9,1.2-5.9,0.7-8.8c-1.1-6.2-2.8-6.4-7.9-5.9 c-4.5,0.4-9.1,1.1-13.7,1.1" style="fill: none; stroke: rgb(14, 14, 152);"/>
      <path stroke-width="2.8346" stroke-linecap="round" stroke-linejoin="round" stroke-miterlimit="10" d=" M481.8,212.4c2.2,3.5,3.4,7.4,5.1,11.1c1.9,4.2,3.8,8.5,5.7,12.8c0.2,0.4,0.2,0.9,0.3,1.4" style="fill: none; stroke: rgb(14, 14, 152);"/>
      <path stroke-width="2.8346" stroke-linecap="round" stroke-linejoin="round" stroke-miterlimit="10" d=" M530.7,192.8c3.8,6,7.5,12.1,9.5,19c0.5,1.8,2,3.6,3,5.4" style="fill: none; stroke: rgb(14, 14, 152);"/>
      <path stroke-width="2.8346" stroke-linecap="round" stroke-linejoin="round" stroke-miterlimit="10" d=" M543.7,217.8c3.3,6.4,6.6,12.9,10,19.3" style="fill: none; stroke: rgb(14, 14, 152);"/>
    </g>
    <g>
      <path stroke-width="2.8346" stroke-linecap="round" stroke-linejoin="round" stroke-miterlimit="10" d=" M405.4,52.3c-4.3-2.7-8.6-2-13-0.1c-1.4,0.6-1.7,1.7-1.6,2.6c0.5,5.4-0.1,10.8-0.1,16.2c0,1,0.5,1.4,1.1,2 c13.5,12.3,27,24.6,40.4,37c9.1,8.5,18.7,16.5,27.6,25.3c4.8,4.7,10,9.1,15,13.7c2,1.9,2.4,4.2,0.8,6.5 c-4.9,7.3-11.3,11.3-20.5,9.7c-0.5-0.1-0.9,0-1.4,0" style="fill: none; stroke: rgb(14, 14, 152);"/>
      <path stroke-width="2.8346" stroke-linecap="round" stroke-linejoin="round" stroke-miterlimit="10" d=" M385.9,73.1c-11.5,11.6-23.1,23-34.4,34.7c-10.4,10.9-20.6,21.9-31,32.7c-2.9,3-5.7,6.2-8.7,9.2c-3.9,3.8-2.6,11.4,3.3,14.2 c2.9,1.4,6,1.6,9.1,1.7c3,0.1,6.1,0,9.1,0" style="fill: none; stroke: rgb(14, 14, 152);"/>
      <path stroke-width="2.8346" stroke-linecap="round" stroke-linejoin="round" stroke-miterlimit="10" d=" M420.3,119.4c-10.2-9.4-20.3-18.7-30.6-28.2c-2-0.1-3.3,1.1-4.7,2.6c-9.5,10.2-19,20.2-28.4,30.5c-1.7,1.8-3.6,3.5-4.9,5.6" style="fill: none; stroke: rgb(14, 14, 152);"/>
      <path stroke-width="2.8346" stroke-linecap="round" stroke-linejoin="round" stroke-miterlimit="10" d=" M391.3,33c-0.3-1.7-0.5-3.5-2.6-3.9c-1.7-0.4-3,0.5-4.3,1.6c-0.8,0.7-0.8,1.8-0.5,2.3c1.3,1.7,0.9,3.7,1,5.5 c0.3,6.4,0.4,12.9,0.3,19.3c-0.1,4.4,0.8,8.7,0.7,13.1c-0.1,2.9,1.6,3.6,4.5,2" style="fill: none; stroke: rgb(14, 14, 152);"/>
      <path stroke-width="2.8346" stroke-linecap="round" stroke-linejoin="round" stroke-miterlimit="10" d=" M432,130c11.8,11,23.7,22,35.5,33" style="fill: none; stroke: rgb(14, 14, 152);"/>
      <path stroke-width="2.8346" stroke-linecap="round" stroke-linejoin="round" stroke-miterlimit="10" d=" M347.8,134.5c-6.1,6.6-12.3,13.1-18.1,20c-2.8,3.3-6.5,5.9-8.6,9.9c0,0.1,0,0.2,0,0.3" style="fill: none; stroke: rgb(14, 14, 152);"/>
      <path stroke-width="2.8346" stroke-linecap="round" stroke-linejoin="round" stroke-miterlimit="10" d=" M388.5,91.9c0.1,4.5,0.2,9.1,0.3,13.7c0,0.9,0.1,1.6,0.8,2.3c2.6,2.2,5.1,4.5,7.7,6.8" style="fill: none; stroke: rgb(14, 14, 152);"/>
      <path stroke-width="2.8346" stroke-linecap="round" stroke-linejoin="round" stroke-miterlimit="10" d=" M388.5,106.9c-3.7,2.6-6.4,6.1-9.4,9.4" style="fill: none; stroke: rgb(14, 14, 152);"/>
    </g>
    <g>
      <path stroke-width="2.8346" stroke-linecap="round" stroke-linejoin="round" stroke-miterlimit="10" d=" M448.5,54.3c-5.5-3.1-11.1-2.6-16.8-0.8c-4.6,1.4-8.7,3.9-12.8,6.3c-2.8,1.6-5.6,1.7-8.6,1.3c-2-0.3-3.1-1.8-3.8-3.9 c-1.5-4.3,0-8.8-1.1-13.2c-0.4-1.4,1.2-3.8,2.6-5.3" style="fill: none; stroke: rgb(14, 14, 152);"/>
      <path stroke-width="2.8346" stroke-linecap="round" stroke-linejoin="round" stroke-miterlimit="10" d=" M447.1,53.2c0.6-4-1-7.5-4.6-9.4c-6.3-3.3-13-4.1-19.9-2c-4.1,1.3-8.1,2.7-12.2,3.9c-1.2,0.4-2.6,0.2-4,0.3" style="fill: none; stroke: rgb(14, 14, 152);"/>
      <path stroke-width="2.8346" stroke-linecap="round" stroke-linejoin="round" stroke-miterlimit="10" d=" M410.4,45.5c0-3.4-1.2-6.6-1.2-10c0-3-2.1-4.4-5.6-4.5c-4.1-0.1-8.1,0.7-12,2.2c-1.9,0.7-2.1,2.2-1.9,3.5 c0.9,5.1,0.1,10.3,0.8,15.4" style="fill: none; stroke: rgb(14, 14, 152);"/>
      <path stroke-width="2.8346" stroke-linecap="round" stroke-linejoin="round" stroke-miterlimit="10" d=" M389.9,34.1c-1.6-1.4-3.2-1-4.8,0" style="fill: none; stroke: rgb(14, 14, 152);"/>
    </g>
  </g>
</svg>