<?xml version="1.0" encoding="utf-8"?>
<svg viewBox="192.768 140.91 105.637 104.345" xmlns="http://www.w3.org/2000/svg">
  <path style="stroke: none; fill: rgba(1, 1, 1, 0);" d="M 192.726 141.152 L 192.726 169.676 L 194.528 169.676 C 204.5 138.774 245.252 134.177 263.256 160.763 C 273.898 176.477 267.658 189.148 262.992 205.33 L 297.224 230.288 L 297.224 141.152 L 192.726 141.152 Z"/>
  <path style="fill: none; stroke: rgb(0, 0, 0);" d="M 262.992 205.33 C 269.065 189.73 273.551 174.135 263.254 158.986 C 247.586 135.933 209.601 138 196.42 162.551 C 183.034 187.486 201.514 216.684 228.76 219.006 C 236.275 219.647 248.612 212.095 254.958 215.789 C 264.656 221.431 277.816 255.695 294.335 242.718 C 309.18 231.057 271.429 208.248 262.992 205.33 Z"/>
  <path style="fill: rgb(79, 79, 115); stroke: none;" d="M 214.347 144.717 L 216.148 146.5 L 214.347 144.717 M 210.743 146.5 L 212.545 148.283 L 210.743 146.5 Z"/>
  <path style="fill: rgba(1, 1, 1, 0); stroke: rgb(0, 0, 0);" d="M 219.752 149.445 C 179.294 161.823 199.106 224.394 239.57 212.836 C 283.079 200.41 262.659 136.317 219.752 149.445 Z"/>
  <path style="fill: rgb(79, 79, 115); stroke: none;" d="M 205.338 150.066 L 207.14 151.849 L 205.338 150.066 M 244.975 150.066 L 246.777 151.849 L 244.975 150.066 Z"/>
  <path style="fill: rgb(100, 124, 146); stroke: rgb(9, 9, 9);" d="M 228.76 210.678 C 226.48 202.962 216.869 202.16 211.603 196.169 C 192.22 174.118 220.086 166.281 228.76 151.849 C 189.714 155.328 194.529 202.63 228.76 210.678 M 232.363 151.849 C 240.74 165.786 267.213 172.526 250.763 194.395 C 245.601 201.259 234.744 202.617 232.363 210.678 C 266.962 203.306 270.943 155.287 232.363 151.849 Z"/>
  <path style="fill: rgb(79, 79, 115); stroke: none;" d="M 239.57 151.849 L 241.372 153.63 L 239.57 151.849 Z"/>
  <path style="fill: rgb(64, 106, 128); stroke: none;" d="M 199.933 155.413 L 201.735 157.196 L 199.933 155.413 Z"/>
  <path style="fill: rgb(1, 1, 129); stroke: none;" d="M 207.14 155.413 L 208.941 157.196 L 207.14 155.413 M 212.545 155.413 L 214.347 157.196 L 212.545 155.413 M 225.156 155.413 L 226.958 157.196 L 225.156 155.413 Z"/>
  <path style="fill: rgb(64, 106, 128); stroke: none;" d="M 246.777 155.413 L 248.579 157.196 L 246.777 155.413 Z"/>
  <path style="fill: rgb(79, 79, 115); stroke: none;" d="M 203.536 158.979 L 205.338 160.762 L 203.536 158.979 Z"/>
  <path style="fill: rgb(1, 1, 129); stroke: none;" d="M 243.174 158.979 L 244.975 160.762 L 243.174 158.979 Z"/>
  <path style="fill: rgb(100, 124, 146); stroke: none;" d="M 216.148 171.458 C 228.03 166.181 233.094 166.181 244.975 171.458 C 240.733 157.321 220.391 157.321 216.148 171.458 Z"/>
  <path style="fill: rgb(64, 106, 128); stroke: none;" d="M 257.586 160.762 L 259.388 162.544 L 257.586 160.762 M 199.933 164.327 L 201.735 166.11 L 199.933 164.327 Z"/>
  <path style="fill: rgb(1, 1, 129); stroke: none;" d="M 255.785 164.327 L 257.586 166.11 L 255.785 164.327 Z"/>
  <path style="fill: rgb(64, 106, 128); stroke: none;" d="M 198.131 167.893 L 199.933 169.676 L 198.131 167.893 Z"/>
  <path style="fill: rgb(79, 79, 115); stroke: none;" d="M 201.735 167.893 L 203.536 169.676 L 201.735 167.893 M 207.14 167.893 L 208.941 169.676 L 207.14 167.893 Z"/>
  <path style="fill: rgb(64, 106, 128); stroke: none;" d="M 257.586 167.893 L 259.388 169.676 L 257.586 167.893 M 217.95 169.676 L 219.752 171.458 L 217.95 169.676 Z"/>
  <path style="fill: rgb(79, 79, 115); stroke: none;" d="M 241.372 169.676 L 243.174 171.458 L 241.372 169.676 Z"/>
  <path style="fill: rgb(1, 1, 129); stroke: none;" d="M 199.933 173.241 L 201.735 175.024 L 199.933 173.241 M 259.388 173.241 L 261.19 175.024 L 259.388 173.241 Z"/>
  <path style="fill: rgb(79, 79, 115); stroke: none;" d="M 268.397 173.241 L 270.199 175.024 L 268.397 173.241 M 196.329 175.024 L 198.131 176.806 L 196.329 175.024 Z"/>
  <path style="fill: rgb(64, 106, 128); stroke: none;" d="M 259.388 185.72 L 261.19 187.503 L 259.388 185.72 Z"/>
  <path style="fill: rgb(79, 79, 115); stroke: none;" d="M 268.397 185.72 L 270.199 187.503 L 268.397 185.72 M 205.338 187.503 L 207.14 189.286 L 205.338 187.503 M 192.726 191.068 L 194.528 192.851 L 192.726 191.068 Z"/>
  <path style="stroke: none; fill: rgba(1, 1, 1, 0);" d="M 192.726 192.851 L 192.726 244.551 L 279.207 244.551 L 255.785 212.461 C 224.821 220.82 213.704 217.525 192.726 192.851 Z"/>
  <path style="fill: rgb(79, 79, 115); stroke: none;" d="M 266.595 192.851 L 268.397 194.634 L 266.595 192.851 M 210.743 196.417 L 212.545 198.2 L 210.743 196.417 Z"/>
  <path style="fill: rgb(64, 106, 128); stroke: none;" d="M 248.579 196.417 L 250.38 198.2 L 248.579 196.417 M 259.388 196.417 L 261.19 198.2 L 259.388 196.417 Z"/>
  <path style="fill: rgb(79, 79, 115); stroke: none;" d="M 212.545 198.2 L 214.347 199.983 L 212.545 198.2 M 207.14 199.983 L 208.941 201.764 L 207.14 199.983 M 252.182 199.983 L 253.984 201.764 L 252.182 199.983 M 217.95 201.764 L 219.752 203.547 L 217.95 201.764 M 241.372 201.764 L 243.174 203.547 L 241.372 201.764 M 214.347 205.33 L 216.148 207.113 L 214.347 205.33 M 244.975 205.33 L 246.777 207.113 L 244.975 205.33 M 217.95 207.113 L 219.752 208.896 L 217.95 207.113 Z"/>
  <path style="fill: rgb(1, 1, 1); stroke: none;" d="M 257.586 207.113 L 261.19 210.678 L 257.586 207.113 Z"/>
  <path style="fill: rgb(79, 79, 115); stroke: none;" d="M 270.199 207.113 L 272 208.896 L 270.199 207.113 Z"/>
  <path style="fill: rgb(64, 106, 128); stroke: none;" d="M 243.174 210.678 L 244.975 212.461 L 243.174 210.678 Z"/>
  <path style="fill: rgb(79, 79, 115); stroke: none;" d="M 250.38 212.461 L 252.182 214.244 L 250.38 212.461 Z"/>
  <path style="stroke: none; fill: rgb(100, 124, 146);" d="M 264.793 212.461 L 262.992 219.592 L 270.199 214.244 L 264.793 212.461 Z"/>
  <path style="fill: rgb(64, 106, 128); stroke: none;" d="M 212.545 214.244 L 214.347 216.027 L 212.545 214.244 Z"/>
  <path style="fill: rgb(79, 79, 115); stroke: none;" d="M 261.19 216.027 L 262.992 217.81 L 261.19 216.027 Z"/>
  <path style="fill: rgb(64, 106, 128); stroke: none;" d="M 225.156 217.81 L 226.958 219.592 L 225.156 217.81 Z"/>
  <path style="stroke: none; fill: rgb(100, 124, 146);" d="M 273.802 217.81 L 268.397 223.158 L 268.397 224.94 C 272.808 229.679 280.322 242.209 287.942 241.125 C 302.231 239.094 276.932 219.927 273.802 217.81 Z"/>
  <path style="fill: rgb(1, 1, 129); stroke: none;" d="M 282.811 217.81 L 284.612 219.592 L 282.811 217.81 Z"/>
  <path style="fill: rgb(79, 79, 115); stroke: none;" d="M 259.388 221.375 L 261.19 223.158 L 259.388 221.375 Z"/>
  <path style="fill: rgb(64, 106, 128); stroke: none;" d="M 261.19 223.158 L 262.992 224.94 L 261.19 223.158 M 282.811 224.94 L 284.612 226.723 L 282.811 224.94 Z"/>
  <path style="fill: rgb(79, 79, 115); stroke: none;" d="M 273.802 230.288 L 275.604 232.071 L 273.802 230.288 Z"/>
  <path style="fill: rgb(1, 1, 129); stroke: none;" d="M 272 235.637 L 273.802 237.42 L 272 235.637 Z"/>
  <path style="fill: rgb(79, 79, 115); stroke: none;" d="M 273.802 237.42 L 275.604 239.202 L 273.802 237.42 Z"/>
  <path style="fill: rgb(1, 1, 1); stroke: none;" d="M 295.422 242.768 L 297.224 244.551 L 295.422 242.768 Z"/>
</svg>